<?xml version="1.0" encoding="UTF-8"?>
<svg xmlns="http://www.w3.org/2000/svg" xmlns:xlink="http://www.w3.org/1999/xlink" width="200px" height="348px" viewBox="0 0 200 347" version="1.1">
<defs>
<filter id="alpha" filterUnits="objectBoundingBox" x="0%" y="0%" width="100%" height="100%">
  <feColorMatrix type="matrix" in="SourceGraphic" values="0 0 0 0 1 0 0 0 0 1 0 0 0 0 1 0 0 0 1 0"/>
</filter>
<mask id="mask0">
  <g filter="url(#alpha)">
<rect x="0" y="0" width="200" height="347" style="fill:rgb(0%,0%,0%);fill-opacity:0.901961;stroke:none;"/>
  </g>
</mask>
<clipPath id="clip1">
  <rect x="0" y="0" width="200" height="347"/>
</clipPath>
<g id="surface5" clip-path="url(#clip1)">
<path style="fill-rule:evenodd;fill:rgb(0%,0%,0%);fill-opacity:1;stroke-width:3.139977;stroke-linecap:butt;stroke-linejoin:miter;stroke:rgb(0%,0%,0%);stroke-opacity:1;stroke-miterlimit:4;" d="M 272.208275 102.499202 L 283.236238 102.486209 C 284.325153 102.489699 285.193715 103.221451 285.223107 104.060729 C 285.21832 104.926967 284.329688 105.62795 283.240773 105.62446 L 272.176533 105.604466 C 271.087618 105.600976 270.221154 104.929172 270.225941 104.062934 C 270.230728 103.196695 271.11936 102.495712 272.208275 102.499202 Z M 272.208275 102.499202 " transform="matrix(-0.0611996,0.0500188,0.0673034,0.0634085,62.252674,145.127339)"/>
</g>
<mask id="mask1">
  <g filter="url(#alpha)">
<rect x="0" y="0" width="200" height="347" style="fill:rgb(0%,0%,0%);fill-opacity:0.901961;stroke:none;"/>
  </g>
</mask>
<clipPath id="clip2">
  <rect x="0" y="0" width="200" height="347"/>
</clipPath>
<g id="surface8" clip-path="url(#clip2)">
<path style="fill-rule:evenodd;fill:rgb(0%,0%,0%);fill-opacity:1;stroke-width:3.139977;stroke-linecap:butt;stroke-linejoin:miter;stroke:rgb(0%,0%,0%);stroke-opacity:1;stroke-miterlimit:4;" d="M 272.194246 102.510269 L 283.222208 102.497276 C 284.311123 102.500766 285.213864 103.205557 285.209077 104.071795 C 285.204291 104.938034 284.315658 105.639017 283.226743 105.635527 L 272.162503 105.615533 C 271.073588 105.612043 270.207125 104.940239 270.211912 104.074001 C 270.216698 103.207762 271.105331 102.506779 272.194246 102.510269 Z M 272.194246 102.510269 " transform="matrix(0.0611996,0.0500188,-0.0673034,0.0634085,74.698148,145.127339)"/>
</g>
<mask id="mask2">
  <g filter="url(#alpha)">
<rect x="0" y="0" width="200" height="347" style="fill:rgb(0%,0%,0%);fill-opacity:0.901961;stroke:none;"/>
  </g>
</mask>
<clipPath id="clip3">
  <rect x="0" y="0" width="200" height="347"/>
</clipPath>
<g id="surface11" clip-path="url(#clip3)">
<path style="fill-rule:evenodd;fill:rgb(0%,0%,0%);fill-opacity:1;stroke-width:3.139977;stroke-linecap:butt;stroke-linejoin:miter;stroke:rgb(0%,0%,0%);stroke-opacity:1;stroke-miterlimit:4;" d="M 272.165892 102.507013 L 283.224181 102.50405 C 284.325065 102.516703 285.178714 103.176791 285.21585 104.058917 C 285.205145 104.93858 284.287061 105.639508 283.234018 105.629318 L 272.17573 105.632281 C 271.074845 105.619629 270.221732 104.915558 270.18406 104.077415 C 270.194766 103.197751 271.112849 102.496823 272.165892 102.507013 Z M 272.165892 102.507013 " transform="matrix(0.0815991,-0.00456836,0.000993037,0.0887568,45.713146,151.44985)"/>
</g>
</defs>
<g id="surface1">
<path style="fill-rule:evenodd;fill:rgb(70.588235%,70.588235%,70.588235%);fill-opacity:1;stroke-width:0.207668;stroke-linecap:butt;stroke-linejoin:miter;stroke:rgb(0%,0%,0%);stroke-opacity:1;stroke-miterlimit:4;" d="M 54.408396 214.881466 L 157.434084 62.892239 L 161.314975 65.608288 L 57.902113 218.171741 C 55.034942 221.586927 51.787877 218.985893 54.408396 214.881466 Z M 54.408396 214.881466 " transform="matrix(-1.962703,-0.454017,-0.595475,1.585009,387.572161,23.453239)"/>
<path style="fill-rule:evenodd;fill:rgb(70.588235%,70.588235%,70.588235%);fill-opacity:1;stroke-width:0.207668;stroke-linecap:round;stroke-linejoin:miter;stroke:rgb(0%,0%,0%);stroke-opacity:1;stroke-miterlimit:4;" d="M 156.500057 75.85658 L 149.510405 71.808898 L 153.226303 63.720153 L 170.107355 47.898222 L 162.90502 68.370518 Z M 156.500057 75.85658 " transform="matrix(-1.962703,-0.454017,-0.595475,1.585009,387.572161,23.453239)"/>
<path style="fill-rule:evenodd;fill:rgb(70.588235%,70.588235%,70.588235%);fill-opacity:1;stroke-width:0.207668;stroke-linecap:round;stroke-linejoin:miter;stroke:rgb(0%,0%,0%);stroke-opacity:1;stroke-miterlimit:4;" d="M 148.646879 74.989662 C 148.457304 75.043797 148.318949 75.211183 148.298473 75.409871 C 148.275478 75.610302 148.374043 75.803657 148.548433 75.897972 L 152.98594 78.40625 C 153.220058 78.539853 153.513581 78.451417 153.643732 78.212674 C 153.772051 77.973407 153.687962 77.673296 153.453156 77.54196 L 149.016105 75.038741 C 148.904883 74.972379 148.771202 74.953803 148.646879 74.989662 Z M 148.646879 74.989662 " transform="matrix(-1.962703,-0.454017,-0.595475,1.585009,387.572161,23.453239)"/>
<path style="fill-rule:evenodd;fill:rgb(70.588235%,70.588235%,70.588235%);fill-opacity:1;stroke-width:0.207668;stroke-linecap:round;stroke-linejoin:miter;stroke:rgb(0%,0%,0%);stroke-opacity:1;stroke-miterlimit:4;" d="M 147.595671 76.768585 C 147.404952 76.819928 147.264311 76.981731 147.239485 77.181637 C 147.212827 77.381019 147.307043 77.575592 147.478226 77.673917 L 151.658882 80.182557 C 151.807626 80.289241 152.002432 80.303145 152.162264 80.215845 C 152.323927 80.12907 152.423596 79.957996 152.420258 79.772202 C 152.41692 79.586408 152.312618 79.41852 152.148294 79.336947 L 147.967183 76.823248 C 147.856649 76.754618 147.721137 76.735518 147.595671 76.768585 Z M 147.595671 76.768585 " transform="matrix(-1.962703,-0.454017,-0.595475,1.585009,387.572161,23.453239)"/>
<path style="fill-rule:evenodd;fill:rgb(70.588235%,70.588235%,70.588235%);fill-opacity:1;stroke-width:0.207668;stroke-linecap:round;stroke-linejoin:miter;stroke:rgb(0%,0%,0%);stroke-opacity:1;stroke-miterlimit:4;" d="M 149.964417 73.028255 C 149.774154 73.084658 149.636942 73.254836 149.617609 73.456316 C 149.598964 73.655529 149.70188 73.847666 149.878789 73.940237 L 153.928415 76.172287 C 154.079456 76.264842 154.268545 76.264787 154.41991 76.172597 C 154.571275 76.080407 154.660412 75.911245 154.655698 75.729986 C 154.650296 75.550995 154.54828 75.38869 154.391281 75.309216 L 150.340057 73.069314 C 150.224485 73.00417 150.089428 72.990129 149.964417 73.028255 Z M 149.964417 73.028255 " transform="matrix(-1.962703,-0.454017,-0.595475,1.585009,387.572161,23.453239)"/>
<path style="fill:none;stroke-width:1.344598;stroke-linecap:butt;stroke-linejoin:miter;stroke:rgb(0%,0%,0%);stroke-opacity:1;stroke-miterlimit:4;" d="M -528.143227 235.086669 L -572.43479 117.925009 " transform="matrix(0.382409,0,0,0.389386,244.267598,-23.105831)"/>
<path style="fill-rule:evenodd;fill:rgb(70.588235%,70.588235%,70.588235%);fill-opacity:1;stroke-width:0.207668;stroke-linecap:butt;stroke-linejoin:miter;stroke:rgb(0%,0%,0%);stroke-opacity:1;stroke-miterlimit:4;" d="M 54.408646 214.881537 L 157.434334 62.892311 L 161.315224 65.60836 L 57.902363 218.171813 C 55.035191 221.586998 51.788127 218.985964 54.408646 214.881537 Z M 54.408646 214.881537 " transform="matrix(1.962703,-0.454017,0.595475,1.585009,-184.635193,23.453239)"/>
<path style="fill-rule:evenodd;fill:rgb(70.588235%,70.588235%,70.588235%);fill-opacity:1;stroke-width:0.207668;stroke-linecap:round;stroke-linejoin:miter;stroke:rgb(0%,0%,0%);stroke-opacity:1;stroke-miterlimit:4;" d="M 162.905269 68.37059 L 156.498475 75.856127 L 149.510655 71.808969 L 153.226553 63.720225 L 170.107604 47.898294 Z M 162.905269 68.37059 " transform="matrix(1.962703,-0.454017,0.595475,1.585009,-184.635193,23.453239)"/>
<path style="fill-rule:evenodd;fill:rgb(70.588235%,70.588235%,70.588235%);fill-opacity:1;stroke-width:0.207668;stroke-linecap:round;stroke-linejoin:miter;stroke:rgb(0%,0%,0%);stroke-opacity:1;stroke-miterlimit:4;" d="M 148.647129 74.989733 C 148.457553 75.043868 148.319199 75.211255 148.298722 75.409943 C 148.275727 75.610374 148.374293 75.803729 148.548683 75.898043 L 152.986189 78.406321 C 153.220308 78.539925 153.513831 78.451488 153.643981 78.212745 C 153.772301 77.973478 153.688212 77.673367 153.453405 77.542031 L 149.016354 75.038812 C 148.905133 74.972451 148.771452 74.953874 148.647129 74.989733 Z M 148.647129 74.989733 " transform="matrix(1.962703,-0.454017,0.595475,1.585009,-184.635193,23.453239)"/>
<path style="fill-rule:evenodd;fill:rgb(70.588235%,70.588235%,70.588235%);fill-opacity:1;stroke-width:0.207668;stroke-linecap:round;stroke-linejoin:miter;stroke:rgb(0%,0%,0%);stroke-opacity:1;stroke-miterlimit:4;" d="M 147.59592 76.768656 C 147.405202 76.819999 147.264561 76.981802 147.237903 77.181184 C 147.213077 77.38109 147.307293 77.575664 147.478476 77.673988 L 151.659131 80.182628 C 151.807876 80.289312 152.00085 80.302692 152.162514 80.215917 C 152.324177 80.129142 152.423846 79.958067 152.420508 79.772273 C 152.417169 79.58648 152.312867 79.418591 152.148543 79.337019 L 147.967433 76.823319 C 147.855067 76.754165 147.721387 76.735589 147.59592 76.768656 Z M 147.59592 76.768656 " transform="matrix(1.962703,-0.454017,0.595475,1.585009,-184.635193,23.453239)"/>
<path style="fill-rule:evenodd;fill:rgb(70.588235%,70.588235%,70.588235%);fill-opacity:1;stroke-width:0.207668;stroke-linecap:round;stroke-linejoin:miter;stroke:rgb(0%,0%,0%);stroke-opacity:1;stroke-miterlimit:4;" d="M 149.964667 73.028327 C 149.774404 73.084729 149.637192 73.254908 149.617859 73.456388 C 149.599214 73.6556 149.70213 73.847737 149.877208 73.939784 L 153.928665 76.172359 C 154.079705 76.264914 154.268795 76.264858 154.42016 76.172669 C 154.571524 76.080479 154.660662 75.911317 154.655948 75.730058 C 154.650546 75.551067 154.54853 75.388762 154.39153 75.309287 L 150.338475 73.068861 C 150.224734 73.004242 150.089678 72.990201 149.964667 73.028327 Z M 149.964667 73.028327 " transform="matrix(1.962703,-0.454017,0.595475,1.585009,-184.635193,23.453239)"/>
<path style="fill:none;stroke-width:1.344598;stroke-linecap:butt;stroke-linejoin:miter;stroke:rgb(0%,0%,0%);stroke-opacity:1;stroke-miterlimit:4;" d="M -218.704965 235.086669 L -174.403188 117.925009 " transform="matrix(0.382409,0,0,0.389386,244.267598,-23.105831)"/>
<path style="fill-rule:evenodd;fill:rgb(70.588235%,70.588235%,70.588235%);fill-opacity:1;stroke-width:0.207668;stroke-linecap:butt;stroke-linejoin:miter;stroke:rgb(0%,0%,0%);stroke-opacity:1;stroke-miterlimit:4;" d="M 54.409504 214.881965 L 157.433607 62.892093 L 161.315262 65.608023 L 57.902432 218.174438 C 55.034028 221.58676 51.787363 218.985709 54.409504 214.881965 Z M 54.409504 214.881965 " transform="matrix(-1.663515,-1.109613,-1.14193,1.270897,441.492772,128.069643)"/>
<path style="fill-rule:evenodd;fill:rgb(70.588235%,70.588235%,70.588235%);fill-opacity:1;stroke-width:0.207668;stroke-linecap:round;stroke-linejoin:miter;stroke:rgb(0%,0%,0%);stroke-opacity:1;stroke-miterlimit:4;" d="M 149.509326 71.808714 L 153.227972 63.71995 L 170.108305 47.900189 L 162.905877 68.370686 L 156.498384 75.857647 Z M 149.509326 71.808714 " transform="matrix(-1.663515,-1.109613,-1.14193,1.270897,441.492772,128.069643)"/>
<path style="fill-rule:evenodd;fill:rgb(70.588235%,70.588235%,70.588235%);fill-opacity:1;stroke-width:0.207668;stroke-linecap:round;stroke-linejoin:miter;stroke:rgb(0%,0%,0%);stroke-opacity:1;stroke-miterlimit:4;" d="M 148.647318 74.990328 C 148.456899 75.045375 148.319528 75.211283 148.297806 75.410544 C 148.276083 75.609805 148.375264 75.803976 148.547301 75.898855 L 152.986979 78.407354 C 153.219936 78.540054 153.513044 78.451721 153.642732 78.211485 C 153.77257 77.974453 153.688133 77.673285 153.453857 77.542506 L 149.017265 75.039774 C 148.904233 74.971823 148.772456 74.955125 148.647318 74.990328 Z M 148.647318 74.990328 " transform="matrix(-1.663515,-1.109613,-1.14193,1.270897,441.492772,128.069643)"/>
<path style="fill-rule:evenodd;fill:rgb(70.588235%,70.588235%,70.588235%);fill-opacity:1;stroke-width:0.207668;stroke-linecap:round;stroke-linejoin:miter;stroke:rgb(0%,0%,0%);stroke-opacity:1;stroke-miterlimit:4;" d="M 147.596064 76.768045 C 147.405496 76.819887 147.265188 76.983232 147.23921 77.181851 C 147.213232 77.38047 147.306838 77.57592 147.479024 77.674003 L 151.658105 80.182425 C 151.806821 80.290752 152.001837 80.304266 152.162594 80.217174 C 152.323351 80.130082 152.422421 79.958396 152.420822 79.772583 C 152.417756 79.585489 152.312724 79.416946 152.148475 79.338087 L 147.967627 76.821976 C 147.856064 76.755307 147.72267 76.734123 147.596064 76.768045 Z M 147.596064 76.768045 " transform="matrix(-1.663515,-1.109613,-1.14193,1.270897,441.492772,128.069643)"/>
<path style="fill-rule:evenodd;fill:rgb(70.588235%,70.588235%,70.588235%);fill-opacity:1;stroke-width:0.207668;stroke-linecap:round;stroke-linejoin:miter;stroke:rgb(0%,0%,0%);stroke-opacity:1;stroke-miterlimit:4;" d="M 149.963295 73.028801 C 149.774344 73.085129 149.637122 73.254241 149.618336 73.456066 C 149.598081 73.656609 149.702837 73.8495 149.877513 73.940536 L 153.928303 76.174045 C 154.080381 76.263793 154.267758 76.264489 154.419854 76.17291 C 154.570483 76.080049 154.66119 75.910282 154.655634 75.730235 C 154.650078 75.550188 154.54828 75.390616 154.390926 75.308555 L 150.338518 73.07056 C 150.224167 73.004531 150.088283 72.990394 149.963295 73.028801 Z M 149.963295 73.028801 " transform="matrix(-1.663515,-1.109613,-1.14193,1.270897,441.492772,128.069643)"/>
<path style="fill:none;stroke-width:1.344598;stroke-linecap:butt;stroke-linejoin:miter;stroke:rgb(0%,0%,0%);stroke-opacity:1;stroke-miterlimit:4;" d="M -370.262602 186.131373 L -367.47395 61.596323 " transform="matrix(0.382409,0,0,0.389386,244.267598,-23.105831)"/>
<path style="fill-rule:nonzero;fill:rgb(89.019608%,89.411765%,89.803922%);fill-opacity:1;stroke-width:0.382163;stroke-linecap:butt;stroke-linejoin:miter;stroke:rgb(0%,0%,0%);stroke-opacity:1;stroke-miterlimit:4;" d="M 28.306737 77.016597 L 94.634601 77.016597 L 94.634601 2.239175 L 28.306737 2.239175 Z M 28.306737 77.016597 " transform="matrix(0.969085,0,0,1.052081,8.841801,135.659832)"/>
<path style="fill-rule:nonzero;fill:rgb(92.941176%,10.980392%,14.117647%);fill-opacity:1;stroke-width:0.382163;stroke-linecap:butt;stroke-linejoin:miter;stroke:rgb(0%,0%,0%);stroke-opacity:1;stroke-miterlimit:4;" d="M 138.925736 77.016597 L 160.59566 77.016597 L 160.59566 2.239175 L 94.634605 2.239175 L 94.634605 77.016597 Z M 138.925736 77.016597 " transform="matrix(0.969085,0,0,1.052081,8.841797,135.659832)"/>
<path style="fill-rule:nonzero;fill:rgb(50.980392%,78.039216%,96.078431%);fill-opacity:1;stroke-width:1.000472;stroke-linecap:butt;stroke-linejoin:miter;stroke:rgb(0%,0%,0%);stroke-opacity:1;stroke-miterlimit:4;" d="M -543.925161 615.0219 L -543.925161 836.434264 L -376.953325 836.434264 L -376.953325 836.614837 L -207.417563 836.614837 L -207.417563 615.202472 L -375.860336 615.202472 L -375.860336 615.0219 Z M -543.925161 615.0219 " transform="matrix(0.382409,0,0,0.389386,244.267598,-23.105831)"/>
<path style="fill-rule:evenodd;fill:rgb(91.764706%,75.686275%,0.784314%);fill-opacity:1;stroke-width:0.435333;stroke-linecap:butt;stroke-linejoin:miter;stroke:rgb(0%,0%,0%);stroke-opacity:1;stroke-miterlimit:4;" d="M 12.608242 -44.798992 C 48.31209 -44.152353 78.461809 -34.287766 110.305781 -16.48067 C 110.995045 -15.985657 112.671511 -16.253232 112.355784 -18.49194 L 112.555893 -32.744752 L 110.243525 -38.542204 C 78.461809 -56.300244 49.210356 -66.164831 12.608242 -66.81147 C -23.993871 -66.164831 -53.245324 -56.300244 -85.02704 -38.542204 L -87.339408 -32.744752 L -87.139299 -18.49194 C -87.455026 -16.253232 -85.77856 -15.985657 -85.089296 -16.48067 C -53.245324 -34.287766 -23.095605 -44.152353 12.608242 -44.798992 Z M 12.608242 -44.798992 " transform="matrix(0.878429,0,0,0.875924,88.979247,118.732684)"/>
<path style="fill-rule:evenodd;fill:rgb(91.764706%,75.686275%,0.784314%);fill-opacity:1;stroke-width:0.435333;stroke-linecap:butt;stroke-linejoin:miter;stroke:rgb(0%,0%,0%);stroke-opacity:1;stroke-miterlimit:4;" d="M -101.075762 -43.34071 C -91.257093 -44.776694 -73.611948 -55.515358 -71.735372 -47.497037 C -71.179515 -41.182274 -64.74046 -36.093895 -66.247946 -32.334471 C -66.18569 -33.966676 -67.555323 -35.447256 -71.31292 -34.185196 C -77.293949 -32.334471 -88.126502 -29.27966 -96.242024 -22.313799 L -87.93084 -38.252331 Z M -101.075762 -43.34071 " transform="matrix(0.878429,0,0,0.875924,88.979247,118.732684)"/>
<path style="fill-rule:evenodd;fill:rgb(91.764706%,75.686275%,0.784314%);fill-opacity:1;stroke-width:0.435333;stroke-linecap:butt;stroke-linejoin:miter;stroke:rgb(0%,0%,0%);stroke-opacity:1;stroke-miterlimit:4;" d="M -66.27018 -32.490556 C -65.629832 -28.731132 -86.294396 -25.315095 -87.148193 -18.49194 " transform="matrix(0.878429,0,0,0.875924,88.979247,118.732684)"/>
<path style="fill-rule:evenodd;fill:rgb(91.764706%,75.686275%,0.784314%);fill-opacity:1;stroke-width:0.435333;stroke-linecap:butt;stroke-linejoin:miter;stroke:rgb(0%,0%,0%);stroke-opacity:1;stroke-miterlimit:4;" d="M 126.292247 -43.34071 C 116.473577 -44.776694 98.828433 -55.515358 96.951857 -47.497037 C 96.396 -41.182274 89.956945 -36.093895 91.464431 -32.334471 C 91.402175 -33.966676 92.771808 -35.447256 96.529405 -34.185196 C 102.510434 -32.334471 113.342987 -29.27966 121.458509 -22.313799 L 113.147325 -38.252331 Z M 126.292247 -43.34071 " transform="matrix(0.878429,0,0,0.875924,88.979247,118.732684)"/>
<path style="fill-rule:evenodd;fill:rgb(91.764706%,75.686275%,0.784314%);fill-opacity:1;stroke-width:0.435333;stroke-linecap:butt;stroke-linejoin:miter;stroke:rgb(0%,0%,0%);stroke-opacity:1;stroke-miterlimit:4;" d="M 91.486665 -32.490556 C 90.846317 -28.731132 111.51088 -25.315095 112.364678 -18.49194 " transform="matrix(0.878429,0,0,0.875924,88.979247,118.732684)"/>
<path style="fill-rule:nonzero;fill:rgb(0%,0%,0%);fill-opacity:1;stroke-width:0.453738;stroke-linecap:butt;stroke-linejoin:miter;stroke:rgb(0%,0%,0%);stroke-opacity:1;stroke-miterlimit:4;" d="M 132.086035 -285.142015 L 126.287524 -299.699778 L 131.302576 -301.842294 C 132.43677 -302.324715 133.32955 -302.627411 133.980914 -302.740922 C 134.891914 -302.906458 135.739143 -302.859162 136.531713 -302.608492 C 137.556587 -302.286878 138.463031 -301.705135 139.241936 -300.858534 C 140.025395 -300.011932 140.67676 -298.938309 141.191475 -297.642394 C 141.633309 -296.535663 141.892944 -295.499877 141.974934 -294.535035 C 142.056924 -293.570193 142.011374 -292.723592 141.829174 -291.990501 C 141.646974 -291.25741 141.382785 -290.628371 141.027495 -290.103384 C 140.67676 -289.578396 140.19393 -289.086516 139.583561 -288.632473 C 138.968636 -288.178429 138.221617 -287.762223 137.342502 -287.383853 Z M 133.32955 -287.681819 L 136.440613 -289.010842 C 137.397162 -289.422319 138.116852 -289.829066 138.590571 -290.245272 C 139.064291 -290.656749 139.401361 -291.091874 139.597226 -291.555376 C 139.870525 -292.208063 139.9844 -292.974261 139.92974 -293.85397 C 139.879635 -294.733679 139.633666 -295.722169 139.196386 -296.82417 C 138.590571 -298.347107 137.870882 -299.406541 137.046427 -300.011932 C 136.221973 -300.617323 135.397518 -300.90583 134.568509 -300.877452 C 133.976359 -300.858534 133.106355 -300.603135 131.958496 -300.111254 L 128.902093 -298.80588 Z M 133.32955 -287.681819 " transform="matrix(0.857575,0,0,0.825912,-78.422073,327.342182)"/>
<path style="fill-rule:nonzero;fill:rgb(0%,0%,0%);fill-opacity:1;stroke-width:0.453738;stroke-linecap:butt;stroke-linejoin:miter;stroke:rgb(0%,0%,0%);stroke-opacity:1;stroke-miterlimit:4;" d="M 147.240511 -291.536458 L 142.753839 -306.581371 L 144.744372 -307.21987 L 149.231044 -292.174956 Z M 147.240511 -291.536458 " transform="matrix(0.857575,0,0,0.825912,-78.422073,327.342182)"/>
<path style="fill-rule:nonzero;fill:rgb(0%,0%,0%);fill-opacity:1;stroke-width:0.453738;stroke-linecap:butt;stroke-linejoin:miter;stroke:rgb(0%,0%,0%);stroke-opacity:1;stroke-miterlimit:4;" d="M 150.770633 -299.91261 C 149.763979 -302.310526 149.618219 -304.476691 150.333354 -306.411105 C 151.053043 -308.345518 152.428652 -309.773863 154.464736 -310.691409 C 155.794795 -311.29207 157.133964 -311.514362 158.468579 -311.358285 C 159.807748 -311.206937 160.996602 -310.686679 162.039696 -309.797511 C 163.078236 -308.913073 163.90269 -307.744857 164.508505 -306.302324 C 165.123429 -304.836142 165.378509 -303.393609 165.273744 -301.969994 C 165.168979 -300.551109 164.699814 -299.29776 163.86625 -298.214678 C 163.032686 -297.131595 161.989591 -296.308642 160.732412 -295.745817 C 159.375023 -295.130967 158.022189 -294.913405 156.67391 -295.0884 C 155.330186 -295.263396 154.141331 -295.793114 153.111902 -296.677552 C 152.082473 -297.56672 151.303568 -298.645073 150.770633 -299.91261 Z M 152.752057 -300.768671 C 153.485412 -299.028172 154.528506 -297.869416 155.885895 -297.287673 C 157.238729 -296.710659 158.623448 -296.739037 160.035497 -297.372806 C 161.474877 -298.020763 162.445091 -299.061279 162.950696 -300.489624 C 163.4563 -301.922698 163.315095 -303.563875 162.536191 -305.422615 C 162.039696 -306.60029 161.411107 -307.536754 160.645867 -308.232008 C 159.880628 -308.931991 159.010623 -309.348197 158.044964 -309.485356 C 157.074749 -309.622515 156.1182 -309.480627 155.166206 -309.050232 C 153.813372 -308.440111 152.843157 -307.451621 152.260118 -306.084761 C 151.672523 -304.713172 151.836503 -302.944295 152.752057 -300.768671 Z M 152.752057 -300.768671 " transform="matrix(0.857575,0,0,0.825912,-78.422073,327.342182)"/>
<path style="fill-rule:nonzero;fill:rgb(0%,0%,0%);fill-opacity:1;stroke-width:0.453738;stroke-linecap:butt;stroke-linejoin:miter;stroke:rgb(0%,0%,0%);stroke-opacity:1;stroke-miterlimit:4;" d="M 168.015852 -303.459824 L 169.869736 -304.159807 C 170.161256 -303.421987 170.530211 -302.859162 170.98571 -302.461874 C 171.44121 -302.069316 172.056135 -301.813917 172.825929 -301.709865 C 173.595724 -301.601084 174.411068 -301.667299 175.276518 -301.913239 C 176.041757 -302.126071 176.693122 -302.428767 177.221501 -302.821325 C 177.745326 -303.213883 178.105171 -303.649008 178.287371 -304.1267 C 178.469571 -304.604391 178.501456 -305.077353 178.378471 -305.550315 C 178.250931 -306.028006 178.004961 -306.406375 177.636006 -306.685423 C 177.267051 -306.959741 176.729562 -307.134736 176.032647 -307.196221 C 175.581702 -307.243518 174.616043 -307.238788 173.131114 -307.182033 C 171.646185 -307.125277 170.589426 -307.167844 169.951726 -307.309732 C 169.122717 -307.484728 168.462242 -307.806342 167.956637 -308.269845 C 167.455588 -308.733347 167.109408 -309.31509 166.927208 -310.010344 C 166.726788 -310.781272 166.758673 -311.556929 167.022863 -312.346775 C 167.282498 -313.136621 167.788103 -313.822416 168.530567 -314.399429 C 169.277587 -314.981172 170.161256 -315.411567 171.18613 -315.700074 C 172.311215 -316.016958 173.354309 -316.111551 174.310858 -315.98858 C 175.267408 -315.86561 176.064532 -315.520348 176.715897 -314.943335 C 177.362706 -314.366322 177.818206 -313.637961 178.086951 -312.758252 L 176.196627 -312.072457 C 175.841337 -313.004192 175.299293 -313.633231 174.575048 -313.954845 C 173.846249 -314.276459 172.898809 -314.276459 171.73273 -313.950115 C 170.516546 -313.609583 169.687536 -313.136621 169.245702 -312.53596 C 168.808422 -311.935298 168.667217 -311.320448 168.831197 -310.691409 C 168.976957 -310.142773 169.291252 -309.750215 169.774081 -309.509004 C 170.256911 -309.263064 171.35922 -309.18739 173.094674 -309.272524 C 174.825573 -309.362386 176.028092 -309.352927 176.711342 -309.244146 C 177.704331 -309.083339 178.492346 -308.752266 179.075385 -308.246197 C 179.658425 -307.735398 180.059265 -307.073251 180.273349 -306.259757 C 180.482879 -305.450993 180.450994 -304.623309 180.17314 -303.776708 C 179.89984 -302.934836 179.376015 -302.187556 178.615331 -301.549058 C 177.850091 -300.91056 176.925427 -300.437598 175.841337 -300.134902 C 174.465728 -299.747074 173.258654 -299.624104 172.22467 -299.765992 C 171.190685 -299.907881 170.302461 -300.305169 169.564551 -300.962585 C 168.826642 -301.620002 168.307372 -302.452415 168.015852 -303.464553 Z M 168.015852 -303.459824 " transform="matrix(0.857575,0,0,0.825912,-78.422073,327.342182)"/>
<path style="fill-rule:nonzero;fill:rgb(0%,0%,0%);fill-opacity:1;stroke-width:0.453738;stroke-linecap:butt;stroke-linejoin:miter;stroke:rgb(0%,0%,0%);stroke-opacity:1;stroke-miterlimit:4;" d="M 194.43028 -302.499711 L 193.277866 -309.06442 L 185.734791 -316.86356 L 188.226374 -317.336521 L 192.102677 -313.240673 C 192.822366 -312.474475 193.501061 -311.698817 194.138761 -310.91843 C 194.462165 -311.817058 194.863005 -312.833926 195.35039 -313.973763 L 197.545898 -319.095939 L 199.937272 -319.545253 L 195.327615 -309.452249 L 196.484584 -302.88754 Z M 194.43028 -302.499711 " transform="matrix(0.857575,0,0,0.825912,-78.422073,327.342182)"/>
<path style="fill-rule:nonzero;fill:rgb(0%,0%,0%);fill-opacity:1;stroke-width:0.453738;stroke-linecap:butt;stroke-linejoin:miter;stroke:rgb(0%,0%,0%);stroke-opacity:1;stroke-miterlimit:4;" d="M 208.883286 -303.904408 L 209.92638 -319.616197 L 215.852432 -319.195261 C 216.895526 -319.119587 217.69265 -319.015536 218.234695 -318.873647 C 218.99538 -318.693922 219.628524 -318.400685 220.125019 -318.003398 C 220.621514 -317.60611 221.008688 -317.071663 221.281988 -316.400057 C 221.559843 -315.723722 221.669163 -315.00009 221.619058 -314.219704 C 221.527958 -312.885951 221.031463 -311.78395 220.120464 -310.91843 C 219.204909 -310.05291 217.63799 -309.702919 215.419707 -309.858996 L 211.388534 -310.147503 L 210.96492 -303.757789 Z M 211.511519 -312.001513 L 215.574577 -311.713006 C 216.918301 -311.613684 217.888515 -311.798139 218.48522 -312.256912 C 219.081925 -312.715685 219.409884 -313.40148 219.469099 -314.309566 C 219.514649 -314.966983 219.387109 -315.539267 219.086479 -316.031147 C 218.781295 -316.523027 218.36679 -316.86356 217.833855 -317.052744 C 217.487676 -317.170985 216.845421 -317.260848 215.902537 -317.331792 L 211.885029 -317.615569 Z M 211.511519 -312.001513 " transform="matrix(0.857575,0,0,0.825912,-78.422073,327.342182)"/>
<path style="fill-rule:nonzero;fill:rgb(0%,0%,0%);fill-opacity:1;stroke-width:0.453738;stroke-linecap:butt;stroke-linejoin:miter;stroke:rgb(0%,0%,0%);stroke-opacity:1;stroke-miterlimit:4;" d="M 222.024453 -302.982132 L 228.661083 -318.476359 L 230.902142 -318.386497 L 236.755313 -302.39093 L 234.38216 -302.485522 L 232.724141 -307.328651 L 226.14217 -307.593509 L 224.238181 -302.896999 Z M 226.8072 -309.263064 L 232.145656 -309.050232 L 230.665282 -313.472424 C 230.214337 -314.815635 229.881823 -315.917636 229.672293 -316.783156 C 229.430878 -315.780477 229.112028 -314.787258 228.711188 -313.808227 Z M 226.8072 -309.263064 " transform="matrix(0.857575,0,0,0.825912,-78.422073,327.342182)"/>
<path style="fill-rule:nonzero;fill:rgb(0%,0%,0%);fill-opacity:1;stroke-width:0.453738;stroke-linecap:butt;stroke-linejoin:miter;stroke:rgb(0%,0%,0%);stroke-opacity:1;stroke-miterlimit:4;" d="M 241.63827 -300.210576 L 243.692574 -313.935926 L 238.563647 -314.76361 L 238.841502 -316.598701 L 251.176434 -314.616991 L 250.898579 -312.7819 L 245.751432 -313.609583 L 243.697129 -299.884233 Z M 241.63827 -300.210576 " transform="matrix(0.857575,0,0,0.825912,-78.422073,327.342182)"/>
<path style="fill-rule:nonzero;fill:rgb(0%,0%,0%);fill-opacity:1;stroke-width:0.453738;stroke-linecap:butt;stroke-linejoin:miter;stroke:rgb(0%,0%,0%);stroke-opacity:1;stroke-miterlimit:4;" d="M 250.802924 -297.732257 L 254.027862 -313.122432 L 260.851248 -311.590036 C 262.222302 -311.282611 263.238066 -310.908971 263.893986 -310.473846 C 264.549905 -310.033992 265.014515 -309.419142 265.296925 -308.624566 C 265.57478 -307.82999 265.62944 -307.007037 265.451795 -306.160435 C 265.224045 -305.067894 264.677445 -304.226022 263.811996 -303.639549 C 262.946546 -303.048347 261.757692 -302.816596 260.236323 -302.944295 C 260.723708 -302.565926 261.078997 -302.215934 261.306747 -301.903779 C 261.785022 -301.222714 262.204082 -300.41395 262.563927 -299.477486 L 264.36315 -294.686383 L 261.803242 -295.263396 L 260.436743 -298.919391 C 260.035903 -299.978825 259.694278 -300.797049 259.411869 -301.374062 C 259.129459 -301.946346 258.856159 -302.367282 258.591969 -302.63214 C 258.332334 -302.896999 258.049924 -303.105102 257.749295 -303.25172 C 257.530655 -303.351042 257.157145 -303.459824 256.63332 -303.578064 L 254.269277 -304.112511 L 252.839008 -297.278213 Z M 254.638232 -305.871929 L 259.020139 -304.888168 C 259.949358 -304.680065 260.696378 -304.61385 261.261197 -304.689524 C 261.826017 -304.760468 262.290627 -304.98276 262.650471 -305.342211 C 263.014871 -305.706392 263.247176 -306.136787 263.351941 -306.633397 C 263.502256 -307.361758 263.365606 -308.019175 262.932881 -308.605647 C 262.504712 -309.19212 261.721252 -309.613056 260.577948 -309.873185 L 255.708656 -310.965727 Z M 254.638232 -305.871929 " transform="matrix(0.857575,0,0,0.825912,-78.422073,327.342182)"/>
<path style="fill-rule:nonzero;fill:rgb(0%,0%,0%);fill-opacity:1;stroke-width:0.453738;stroke-linecap:butt;stroke-linejoin:miter;stroke:rgb(0%,0%,0%);stroke-opacity:1;stroke-miterlimit:4;" d="M 265.62944 -293.409386 L 271.505386 -307.934042 L 273.427595 -307.101629 L 267.551648 -292.576974 Z M 265.62944 -293.409386 " transform="matrix(0.857575,0,0,0.825912,-78.422073,327.342182)"/>
<path style="fill-rule:nonzero;fill:rgb(0%,0%,0%);fill-opacity:1;stroke-width:0.453738;stroke-linecap:butt;stroke-linejoin:miter;stroke:rgb(0%,0%,0%);stroke-opacity:1;stroke-miterlimit:4;" d="M 270.330197 -291.711454 L 281.426169 -304.169266 L 283.521468 -303.336854 L 284.090843 -286.244016 L 281.872559 -287.123725 L 281.808789 -292.260089 L 275.659543 -294.700572 L 272.39361 -290.8885 Z M 276.811957 -296.062702 L 281.795124 -294.080992 L 281.772349 -298.763313 C 281.763239 -300.186928 281.790569 -301.340955 281.858894 -302.225393 C 281.321404 -301.359873 280.711035 -300.527461 280.02323 -299.732885 Z M 276.811957 -296.062702 " transform="matrix(0.857575,0,0,0.825912,-78.422073,327.342182)"/>
<path style="fill-rule:evenodd;fill:rgb(0%,56.078431%,29.803922%);fill-opacity:1;stroke-width:0.692711;stroke-linecap:butt;stroke-linejoin:miter;stroke:rgb(0%,0%,0%);stroke-opacity:1;stroke-miterlimit:4;" d="M -208.857856 722.051419 C -211.340063 767.987136 -250.503774 807.181468 -284.508989 808.686242 C -323.345825 809.930188 -362.233735 804.884181 -375.696899 833.866117 C -390.110043 807.392136 -430.662973 809.308215 -459.693559 809.177801 C -478.458227 810.140856 -502.044301 800.058874 -518.428911 782.583438 C -535.538774 764.827112 -544.578911 740.530036 -542.117133 707.435053 L -525.895961 691.725218 L -510.96186 681.793713 L -485.986567 656.784378 L -481.941489 654.135977 L -476.854497 652.691395 L -471.348696 652.851904 L -464.617114 655.018778 L -460.469887 657.767497 L -434.76934 679.777317 L -424.442133 690.872513 L -403.971586 670.558071 L -399.538344 668.391198 L -395.288969 666.846297 L -390.436918 666.906488 L -386.279477 667.568588 L -379.292524 671.119853 L -352.917797 694.072664 L -341.242231 706.201138 L -317.1352 710.193804 L -290.065864 710.304154 L -283.548793 709.220717 L -275.25434 705.43872 L -263.241684 696.851479 L -250.381196 688.565194 L -242.852856 685.555647 L -236.877172 684.131128 L -231.851469 683.830173 L -225.886 684.532401 L -218.235083 687.401502 L -213.311528 690.390985 L -208.786352 692.266936 L -208.530981 710.324218 Z M -208.857856 722.051419 " transform="matrix(0.382409,0,0,0.389386,244.267598,-23.105831)"/>
<path style="fill:none;stroke-width:0.252983;stroke-linecap:butt;stroke-linejoin:bevel;stroke:rgb(0%,0%,0%);stroke-opacity:1;stroke-miterlimit:4;" d="M 36.848781 89.316156 L 36.513705 94.051472 L 36.062343 97.222 L 35.721085 98.560726 L 35.033676 99.749797 L 32.74498 102.694397 L 32.152527 103.362286 L 31.850098 104.199289 L 31.235732 106.616382 L 30.884113 107.601215 L 30.179978 108.63524 L 28.601919 109.862954 L 26.976905 110.970923 L 25.82517 111.847032 L 24.851115 113.253848 L 22.964061 115.637281 L 20.220801 118.982415 L 9.866763 129.977657 " transform="matrix(0.662454,0.0850129,-0.0966598,0.847433,46.906233,155.209202)"/>
<path style="fill:none;stroke-width:0.187754;stroke-linecap:butt;stroke-linejoin:bevel;stroke:rgb(0%,0%,0%);stroke-opacity:1;stroke-miterlimit:4;" d="M 46.264889 100.544133 L 49.746267 104.419294 L 52.278178 106.079012 L 54.177111 108.454833 L 57.262877 111.300596 L 62.797476 114.623761 " transform="matrix(0.987396,0,0,1.047335,22.138524,136.036411)"/>
<path style="fill:none;stroke-width:0.31997;stroke-linecap:round;stroke-linejoin:miter;stroke:rgb(0%,0%,0%);stroke-opacity:1;stroke-miterlimit:4;" d="M 2.814761 111.16979 L 10.240356 103.852223 L 17.047931 99.429929 L 24.379887 91.687412 L 28.570245 87.484597 L 30.405574 86.419885 L 32.49373 85.714746 L 34.656798 85.728755 L 36.684088 86.177055 L 38.19168 86.779459 L 39.825686 87.704078 L 42.747231 90.281804 L 51.867697 98.323188 L 57.490735 104.230477 L 70.431683 111.356581 L 83.026166 110.268519 L 85.165824 109.80154 L 86.743646 109.605409 L 88.429153 109.694135 L 90.227027 109.918285 L 98.209775 111.15578 L 105.935015 112.421294 L 118.159623 112.444643 L 121.254401 111.991673 L 124.817376 110.380595 L 130.758788 106.084385 L 136.466102 102.315861 L 139.963529 100.882235 L 142.871028 100.31719 L 145.080915 100.158417 L 147.599812 100.480633 L 151.317291 101.806854 L 153.592726 103.315197 L 155.423373 104.132411 " transform="matrix(0.834319,0,0,0.836493,34.600811,159.393956)"/>
<path style="fill:none;stroke-width:0.31997;stroke-linecap:round;stroke-linejoin:miter;stroke:rgb(0%,0%,0%);stroke-opacity:1;stroke-miterlimit:4;" d="M 19.219066 96.92578 L 24.37859 91.686272 L 28.568948 87.483458 L 30.404278 86.418745 L 32.497116 85.713606 L 34.660183 85.727616 L 36.682791 86.175916 L 38.195066 86.778319 L 39.824389 87.707608 L 42.745934 90.280664 L 51.871082 98.322049 L 57.30216 104.028536 " transform="matrix(0.834319,0,0,0.836493,65.949549,164.906628)"/>
<path style="fill:none;stroke-width:0.583141;stroke-linecap:butt;stroke-linejoin:bevel;stroke:rgb(0%,0%,0%);stroke-opacity:1;stroke-miterlimit:4;" d="M 36.849139 89.318627 L 36.514808 94.046765 L 36.05905 97.217418 L 35.722024 98.566754 L 35.028648 99.748089 L 32.742884 102.687081 L 32.158799 103.360747 L 31.850772 104.202905 L 31.238884 106.619332 L 30.892168 107.598227 L 30.181021 108.628989 L 28.60022 109.860075 L 26.980014 110.965537 L 25.823608 111.851889 L 24.853046 113.247648 L 22.962912 115.638217 L 20.224701 118.980614 L 9.866511 129.979972 " transform="matrix(-0.291536,0.0508373,0.06035,0.357196,100.840742,204.441192)"/>
<path style="fill:none;stroke-width:0.376157;stroke-linecap:butt;stroke-linejoin:bevel;stroke:rgb(0%,0%,0%);stroke-opacity:1;stroke-miterlimit:4;" d="M 46.26759 100.545749 L 49.746088 104.421108 L 52.28201 106.077933 L 54.174797 108.454025 L 57.261392 111.297322 L 62.797506 114.624192 " transform="matrix(-0.47425,0.11146,0.108173,0.517841,103.902004,182.444321)"/>
<path style="fill:none;stroke-width:0.376157;stroke-linecap:butt;stroke-linejoin:bevel;stroke:rgb(0%,0%,0%);stroke-opacity:1;stroke-miterlimit:4;" d="M 46.264065 100.54168 L 49.7461 104.415527 L 52.27922 106.079955 L 54.17705 108.451397 L 57.265044 111.301546 L 62.7977 114.623038 " transform="matrix(-0.485752,0,0,0.5304,173.929904,192.055521)"/>
<path style="fill:none;stroke-width:0.445369;stroke-linecap:butt;stroke-linejoin:bevel;stroke:rgb(0%,0%,0%);stroke-opacity:1;stroke-miterlimit:4;" d="M 46.269777 100.546223 L 49.751113 104.416034 L 52.282111 106.07697 L 54.173088 108.457075 L 57.266531 111.299503 L 62.793999 114.621376 " transform="matrix(0.402818,0,0,0.456256,139.338275,199.894699)"/>
<path style="fill:none;stroke-width:0.204091;stroke-linecap:butt;stroke-linejoin:bevel;stroke:rgb(0%,0%,0%);stroke-opacity:1;stroke-miterlimit:4;" d="M 46.265545 100.542536 L 49.747031 104.417607 L 52.277406 106.082051 L 54.175868 108.453986 L 57.262339 111.302422 L 62.798292 114.622324 " transform="matrix(-0.909848,0.149287,0.137005,0.939445,82.616635,138.451484)"/>
<path style="fill:none;stroke-width:0.401273;stroke-linecap:butt;stroke-linejoin:bevel;stroke:rgb(0%,0%,0%);stroke-opacity:1;stroke-miterlimit:4;" d="M 46.268729 100.539026 L 49.746093 104.422405 L 52.276922 106.080519 L 54.177023 108.452325 L 57.257478 111.298771 L 62.801469 114.620068 " transform="matrix(-0.462734,0.100382,0.105546,0.46637,100.720467,187.373308)"/>
<path style="fill-rule:evenodd;fill:rgb(0%,44.313725%,73.72549%);fill-opacity:1;stroke-width:0.692711;stroke-linecap:butt;stroke-linejoin:miter;stroke:rgb(0%,0%,0%);stroke-opacity:1;stroke-miterlimit:4;" d="M -393.715883 817.654691 C -389.670805 804.061571 -385.166059 792.434688 -375.329165 782.603502 C -368.863168 775.761799 -374.654985 763.322338 -382.990297 762.048297 C -386.279477 760.994955 -390.743364 759.309609 -392.714829 758.005472 C -396.361528 755.928885 -400.427036 751.936219 -397.107211 746.719671 C -393.205141 741.121914 -387.076235 738.142463 -380.252719 735.193107 C -375.094223 733.186742 -369.976586 732.193592 -364.81809 730.819232 C -359.863891 729.896304 -358.832192 728.22099 -364.470786 726.234689 L -382.816645 719.262572 C -385.053696 718.169103 -390.600356 716.413534 -384.47145 712.280423 C -382.418266 710.72549 -381.682797 708.949858 -381.335493 707.114034 L -377.59686 707.063875 C -377.760297 708.79938 -377.433422 710.534886 -379.210805 712.280423 C -380.783891 713.875483 -381.488715 715.420384 -378.066743 716.734552 L -357.187602 723.847115 C -351.068911 726.154434 -349.403891 732.273846 -357.442973 734.852025 C -362.713833 736.497244 -368.1277 737.981953 -373.69479 740.178923 C -378.138247 742.275574 -379.701118 748.354858 -372.305571 751.725551 C -366.769125 754.062966 -357.923071 755.086212 -351.875883 762.67027 C -345.501821 773.103366 -345.655043 785.422444 -347.493715 792.11367 C -350.129145 800.359828 -354.848403 810.16092 -355.103774 816.791954 C -372.428149 830.806411 -372.254497 836.835537 -375.727543 834.337613 C -379.190375 831.829657 -386.310122 820.774588 -393.715883 817.654691 Z M -393.715883 817.654691 " transform="matrix(0.382409,0,0,0.389386,244.267598,-23.105831)"/>
<path style="fill-rule:nonzero;fill:rgb(60%,39.607843%,19.607843%);fill-opacity:1;stroke-width:0.989587;stroke-linecap:butt;stroke-linejoin:miter;stroke:rgb(0%,0%,0%);stroke-opacity:1;stroke-miterlimit:4;" d="M -301.986586 429.934766 C -308.564946 429.874575 -317.635727 428.620597 -320.986196 431.901003 C -323.131313 433.997654 -321.793168 436.214687 -324.9802 437.76962 C -325.368364 437.960224 -324.9802 450.610353 -324.9802 454.422446 C -324.9802 457.883425 -322.743149 473.773832 -324.9802 475.96077 C -325.123208 476.111247 -327.145747 478.739585 -325.981254 479.883213 C -325.235571 480.615536 -323.733989 480.134008 -322.988305 480.866331 C -320.169008 483.615051 -325.725883 484.527947 -325.981254 484.778742 C -328.391958 487.136221 -326.461352 491.59035 -327.983364 494.569801 C -330.82309 500.127431 -326.982309 511.322946 -326.982309 516.118157 C -326.982309 517.422294 -327.922075 519.10764 -326.982309 520.030568 C -326.24684 520.762891 -325.225356 520.772923 -323.979145 521.986773 C -322.00768 523.922915 -324.9802 533.74407 -324.9802 535.700275 C -324.9802 543.04357 -326.594145 550.768074 -322.988305 554.309307 C -321.496938 555.763921 -323.151743 563.277757 -325.981254 566.056572 C -327.21725 567.270422 -324.9802 572.627416 -324.9802 573.891425 C -324.9802 579.770074 -324.9802 585.648722 -324.9802 591.517338 C -324.9802 594.787713 -321.650161 601.318429 -324.9802 601.318429 C -327.094672 601.318429 -320.873833 602.351707 -318.984086 603.274635 C -315.010512 605.220808 -291.189497 604.247722 -284.978872 604.247722 C -281.321958 604.247722 -277.654829 604.247722 -273.9877 604.247722 C -272.312465 604.247722 -267.317407 604.247722 -268.982426 604.247722 C -274.590375 604.247722 -263.905649 605.070331 -262.986313 603.274635 C -262.312133 601.960466 -263.987368 598.379105 -262.986313 597.395987 C -256.704184 591.246479 -260.708403 542.291183 -259.983149 541.578924 C -258.195551 539.823355 -258.011684 541.609019 -255.97893 539.622718 C -254.262836 537.937372 -254.98809 519.559072 -254.98809 515.135038 C -254.98809 500.608959 -251.310747 451.814172 -259.983149 447.570711 C -260.790122 447.169438 -259.533696 440.608626 -259.983149 439.735857 C -260.667543 438.401625 -263.854575 432.031417 -264.988422 430.917885 C -267.09268 428.851329 -287.828813 427.416779 -288.98309 427.978561 C -289.779848 428.369802 -295.980258 436.024083 -295.980258 431.901003 C -295.980258 431.248935 -293.988364 431.248935 -293.988364 431.901003 C -293.988364 432.823931 -295.20393 433.345586 -295.980258 433.857209 C -297.982368 435.161346 -300.107055 431.409444 -301.986586 429.934766 Z M -301.986586 429.934766 " transform="matrix(0.382409,0,0,0.389386,244.267598,-23.105831)"/>
<path style="fill:none;stroke-width:0.989587;stroke-linecap:butt;stroke-linejoin:miter;stroke:rgb(0%,0%,0%);stroke-opacity:1;stroke-miterlimit:4;" d="M -317.983032 452.46624 C -317.983032 451.152072 -319.321176 448.543798 -317.983032 448.543798 C -316.655102 448.543798 -319.321176 452.46624 -317.983032 452.46624 C -315.848129 452.46624 -314.755141 449.707489 -312.987973 448.543798 C -311.220805 447.390138 -302.221528 447.570711 -298.983422 447.570711 " transform="matrix(0.382409,0,0,0.389386,244.267598,-23.105831)"/>
<path style="fill:none;stroke-width:0.989587;stroke-linecap:butt;stroke-linejoin:miter;stroke:rgb(0%,0%,0%);stroke-opacity:1;stroke-miterlimit:4;" d="M -294.979204 436.796533 C -296.736157 450.389653 -291.536801 446.477242 -290.9852 447.570711 C -290.065864 449.366407 -290.586821 453.248723 -289.984145 454.422446 C -287.318071 451.814172 -284.805219 449.045389 -281.985922 446.587592 C -281.975708 446.57756 -264.14059 446.015778 -260.984204 447.570711 " transform="matrix(0.382409,0,0,0.389386,244.267598,-23.105831)"/>
<path style="fill:none;stroke-width:0.989587;stroke-linecap:butt;stroke-linejoin:miter;stroke:rgb(0%,0%,0%);stroke-opacity:1;stroke-miterlimit:4;" d="M -323.979145 507.300185 C -315.633618 507.711489 -295.500161 505.825507 -291.986254 509.25639 C -284.78479 516.308762 -291.986254 517.241721 -291.986254 517.091244 C -291.986254 516.589653 -288.98309 517.833599 -288.98309 520.030568 C -288.98309 521.214323 -293.181391 521.986773 -291.986254 521.986773 C -291.455083 521.986773 -288.308911 522.307792 -289.984145 523.953011 C -294.059868 527.945676 -322.988305 522.969892 -324.9802 522.969892 " transform="matrix(0.382409,0,0,0.389386,244.267598,-23.105831)"/>
<path style="fill:none;stroke-width:0.989587;stroke-linecap:butt;stroke-linejoin:miter;stroke:rgb(0%,0%,0%);stroke-opacity:1;stroke-miterlimit:4;" d="M -282.986977 524.926098 C -272.087739 524.253965 -267.480844 526.892335 -256.979985 526.892335 " transform="matrix(0.382409,0,0,0.389386,244.267598,-23.105831)"/>
<path style="fill:none;stroke-width:0.989587;stroke-linecap:butt;stroke-linejoin:miter;stroke:rgb(0%,0%,0%);stroke-opacity:1;stroke-miterlimit:4;" d="M -283.988032 510.239509 C -277.777407 506.708307 -264.201879 505.925825 -259.983149 507.300185 C -259.492836 507.460694 -260.453032 510.761164 -259.983149 511.222627 C -259.482622 511.714187 -257.480512 510.731068 -256.979985 511.222627 C -255.938071 512.245873 -256.438598 526.892335 -258.982094 526.892335 L -262.986313 526.892335 C -250.401625 526.892335 -281.689692 527.03278 -281.985922 526.892335 C -282.986977 526.400776 -281.607973 518.575954 -281.985922 517.091244 C -282.568168 514.793956 -283.313852 512.526764 -283.988032 510.239509 Z M -283.988032 510.239509 " transform="matrix(0.382409,0,0,0.389386,244.267598,-23.105831)"/>
<path style="fill:none;stroke-width:0.989587;stroke-linecap:butt;stroke-linejoin:miter;stroke:rgb(0%,0%,0%);stroke-opacity:1;stroke-miterlimit:4;" d="M -319.985141 560.187955 C -308.330004 560.829992 -295.489946 558.713277 -284.978872 562.144161 C -282.455805 562.96677 -278.349438 560.980469 -275.979594 562.144161 C -271.260336 564.45148 -266.050766 565.083485 -261.985258 565.083485 " transform="matrix(0.382409,0,0,0.389386,244.267598,-23.105831)"/>
<path style="fill:none;stroke-width:0.989587;stroke-linecap:butt;stroke-linejoin:miter;stroke:rgb(0%,0%,0%);stroke-opacity:1;stroke-miterlimit:4;" d="M -320.986196 474.004564 C -316.430375 469.279576 -306.981645 474.496124 -301.986586 472.048359 C -299.289868 470.73419 -296.164125 466.169711 -292.987309 466.169711 C -292.190551 466.169711 -293.232465 472.790714 -290.9852 474.987683 C -286.449809 479.431781 -281.270883 470.373044 -279.983813 469.109035 C -277.88977 467.062543 -270.606586 471.436418 -269.983481 472.048359 C -269.043715 472.971287 -259.574555 472.048359 -255.97893 472.048359 " transform="matrix(0.382409,0,0,0.389386,244.267598,-23.105831)"/>
<path style="fill-rule:evenodd;fill:rgb(91.764706%,75.686275%,0.784314%);fill-opacity:1;stroke-width:1;stroke-linecap:butt;stroke-linejoin:miter;stroke:rgb(0%,0%,0%);stroke-opacity:1;stroke-miterlimit:4;" d="M -863.576818 379.994039 C -864.067131 526.125501 -863.801545 730.330517 -863.924123 809.394143 C -864.046701 888.468012 -785.208537 937.618994 -739.333674 937.618994 C -693.959338 937.618994 -631.352561 931.390608 -614.73301 976.997146 C -601.106408 931.431584 -543.555979 937.977536 -490.173205 937.618994 C -438.281799 937.260452 -367.93217 874.515608 -367.799377 809.394143 C -367.666584 744.539023 -366.28758 506.37496 -367.29885 380.116968 C -531.042795 380.127212 -699.843088 380.967224 -863.576818 379.994039 Z M -783.053205 463.964568 C -672.436662 464.661164 -558.408361 464.026032 -447.802033 464.026032 C -447.117639 554.778126 -448.057404 725.966549 -448.139123 772.587249 C -448.231057 819.392342 -495.740295 864.486677 -530.797639 864.742778 C -566.866252 864.99888 -605.754162 860.307102 -614.957736 893.05735 C -626.18385 860.27637 -668.493733 864.742778 -699.148479 864.742778 C -730.1301 864.742778 -783.38008 829.421273 -783.298361 772.587249 C -783.216643 715.753225 -783.38008 568.996876 -783.053205 463.964568 Z M -783.053205 463.964568 " transform="matrix(0.382409,0,0,0.381319,335.950639,-38.609763)"/>
<path style="fill:none;stroke-width:3.5;stroke-linecap:butt;stroke-linejoin:miter;stroke:rgb(0%,0%,0%);stroke-opacity:1;stroke-miterlimit:4;" d="M -367.288635 380.106724 C -531.022365 380.116968 -699.832873 380.977468 -863.576818 380.004283 C -864.056916 526.135745 -863.801545 730.320273 -863.924123 809.383899 C -864.046701 888.447524 -785.208537 937.60875 -739.333674 937.60875 C -693.959338 937.60875 -631.362775 931.400852 -614.743225 977.00739 C -601.116623 931.441828 -543.545764 937.967292 -490.16299 937.60875 C -438.271584 937.250208 -367.942385 874.49512 -367.809592 809.383899 C -367.676799 744.518535 -366.277365 506.364716 -367.288635 380.106724 Z M -367.288635 380.106724 " transform="matrix(0.382409,0,0,0.381319,335.950639,-38.609763)"/>
<path style="fill-rule:evenodd;fill:rgb(0%,0%,0%);fill-opacity:1;stroke-width:3.139965;stroke-linecap:butt;stroke-linejoin:miter;stroke:rgb(0%,0%,0%);stroke-opacity:1;stroke-miterlimit:4;" d="M 278.37901 16.802104 C 278.37901 16.802104 273.60667 40.245522 266.040713 66.787378 C 258.471683 93.269335 248.109036 122.849729 248.109036 122.849729 C 254.627473 107.401811 263.656341 105.253275 274.000203 97.222103 L 279.128153 97.143581 L 279.302968 97.125301 L 284.464652 97.019163 C 294.025737 107.979399 304.229458 107.49057 311.405055 123.337301 C 311.405055 123.337301 300.924803 95.153471 292.668292 68.519672 C 284.411781 41.885872 278.37901 16.802104 278.37901 16.802104 Z M 278.37901 16.802104 " transform="matrix(-0.0598949,0.0512342,0.068287,0.0625832,62.252674,145.127339)"/>
<path style="fill-rule:evenodd;fill:rgb(0%,0%,0%);fill-opacity:1;stroke-width:3.139965;stroke-linecap:butt;stroke-linejoin:miter;stroke:rgb(0%,0%,0%);stroke-opacity:1;stroke-miterlimit:4;" d="M 278.674582 25.985089 L 279.302968 97.125301 " transform="matrix(-0.0598949,0.0512342,0.068287,0.0625832,62.252674,145.127339)"/>
<use xlink:href="#surface5" mask="url(#mask0)"/>
<path style="fill-rule:evenodd;fill:rgb(0%,0%,0%);fill-opacity:1;stroke-width:3.139965;stroke-linecap:butt;stroke-linejoin:miter;stroke:rgb(0%,0%,0%);stroke-opacity:1;stroke-miterlimit:4;" d="M 274.371695 100.350909 L 272.717407 115.374516 L 286.622978 115.100818 L 284.526396 100.276713 Z M 274.371695 100.350909 " transform="matrix(-0.0598949,0.0512342,0.068287,0.0625832,62.252674,145.127339)"/>
<path style="fill-rule:evenodd;fill:rgb(0%,0%,0%);fill-opacity:1;stroke-width:2.977415;stroke-linecap:butt;stroke-linejoin:miter;stroke:rgb(0%,0%,0%);stroke-opacity:1;stroke-miterlimit:4;" d="M -614.182061 273.950995 L -126.742096 273.947413 L -126.766683 281.543894 L -614.175633 281.512808 Z M -614.182061 273.950995 " transform="matrix(-0.0715317,-0.06641,-0.0639946,0.0532638,62.093981,143.49549)"/>
<path style="fill-rule:evenodd;fill:rgb(0%,0%,0%);fill-opacity:1;stroke-width:2.977403;stroke-linecap:butt;stroke-linejoin:miter;stroke:rgb(0%,0%,0%);stroke-opacity:1;stroke-miterlimit:4;" d="M 272.382139 594.680667 L 246.65545 612.833142 L 248.548123 540.422288 L 272.402566 520.602625 Z M 272.382139 594.680667 " transform="matrix(-0.0637038,0.0535346,0.0715391,0.0664038,62.093981,143.49549)"/>
<path style="fill-rule:evenodd;fill:rgb(0%,0%,0%);fill-opacity:1;stroke-width:2.977403;stroke-linecap:butt;stroke-linejoin:miter;stroke:rgb(0%,0%,0%);stroke-opacity:1;stroke-miterlimit:4;" d="M 283.360719 594.300659 L 309.112937 612.481893 L 307.207399 540.074212 L 283.348964 520.248563 Z M 283.360719 594.300659 " transform="matrix(-0.0637038,0.0535346,0.0715391,0.0664038,62.093981,143.49549)"/>
<path style="fill-rule:evenodd;fill:rgb(0%,0%,0%);fill-opacity:1;stroke-width:2.977403;stroke-linecap:butt;stroke-linejoin:miter;stroke:rgb(0%,0%,0%);stroke-opacity:1;stroke-miterlimit:4;" d="M 277.767932 519.865446 L 277.763571 610.284083 " transform="matrix(-0.0637038,0.0535346,0.0715391,0.0664038,62.093981,143.49549)"/>
<path style="fill-rule:evenodd;fill:rgb(0%,0%,0%);fill-opacity:1;stroke-width:2.977403;stroke-linecap:butt;stroke-linejoin:miter;stroke:rgb(0%,0%,0%);stroke-opacity:1;stroke-miterlimit:4;" d="M 266.913892 534.498523 L 252.899448 544.679252 " transform="matrix(-0.0637038,0.0535346,0.0715391,0.0664038,62.093981,143.49549)"/>
<path style="fill-rule:evenodd;fill:rgb(0%,0%,0%);fill-opacity:1;stroke-width:2.977403;stroke-linecap:butt;stroke-linejoin:miter;stroke:rgb(0%,0%,0%);stroke-opacity:1;stroke-miterlimit:4;" d="M 266.683392 544.449421 L 252.668948 554.63015 " transform="matrix(-0.0637038,0.0535346,0.0715391,0.0664038,62.093981,143.49549)"/>
<path style="fill-rule:evenodd;fill:rgb(0%,0%,0%);fill-opacity:1;stroke-width:2.977403;stroke-linecap:butt;stroke-linejoin:miter;stroke:rgb(0%,0%,0%);stroke-opacity:1;stroke-miterlimit:4;" d="M 266.302107 555.521917 L 252.287663 565.702646 " transform="matrix(-0.0637038,0.0535346,0.0715391,0.0664038,62.093981,143.49549)"/>
<path style="fill-rule:evenodd;fill:rgb(0%,0%,0%);fill-opacity:1;stroke-width:2.977403;stroke-linecap:butt;stroke-linejoin:miter;stroke:rgb(0%,0%,0%);stroke-opacity:1;stroke-miterlimit:4;" d="M 266.309499 566.339889 L 252.262873 576.546563 " transform="matrix(-0.0637038,0.0535346,0.0715391,0.0664038,62.093981,143.49549)"/>
<path style="fill-rule:evenodd;fill:rgb(0%,0%,0%);fill-opacity:1;stroke-width:2.977403;stroke-linecap:butt;stroke-linejoin:miter;stroke:rgb(0%,0%,0%);stroke-opacity:1;stroke-miterlimit:4;" d="M 266.29432 575.881892 L 252.282365 586.11944 " transform="matrix(-0.0637038,0.0535346,0.0715391,0.0664038,62.093981,143.49549)"/>
<path style="fill-rule:evenodd;fill:rgb(0%,0%,0%);fill-opacity:1;stroke-width:2.977403;stroke-linecap:butt;stroke-linejoin:miter;stroke:rgb(0%,0%,0%);stroke-opacity:1;stroke-miterlimit:4;" d="M 266.309007 586.105725 L 252.294563 596.286455 " transform="matrix(-0.0637038,0.0535346,0.0715391,0.0664038,62.093981,143.49549)"/>
<path style="fill-rule:evenodd;fill:rgb(0%,0%,0%);fill-opacity:1;stroke-width:2.977403;stroke-linecap:butt;stroke-linejoin:miter;stroke:rgb(0%,0%,0%);stroke-opacity:1;stroke-miterlimit:4;" d="M 266.911876 534.494451 L 252.905219 544.673696 " transform="matrix(0.0637038,-0.0535346,0.0715391,0.0664038,26.669583,173.237973)"/>
<path style="fill-rule:evenodd;fill:rgb(0%,0%,0%);fill-opacity:1;stroke-width:2.977403;stroke-linecap:butt;stroke-linejoin:miter;stroke:rgb(0%,0%,0%);stroke-opacity:1;stroke-miterlimit:4;" d="M 266.676891 544.423028 L 252.667745 554.659093 " transform="matrix(0.0637038,-0.0535346,0.0715391,0.0664038,26.669583,173.237973)"/>
<path style="fill-rule:evenodd;fill:rgb(0%,0%,0%);fill-opacity:1;stroke-width:2.977403;stroke-linecap:butt;stroke-linejoin:miter;stroke:rgb(0%,0%,0%);stroke-opacity:1;stroke-miterlimit:4;" d="M 266.290603 555.523793 L 252.283946 565.703038 " transform="matrix(0.0637038,-0.0535346,0.0715391,0.0664038,26.669583,173.237973)"/>
<path style="fill-rule:evenodd;fill:rgb(0%,0%,0%);fill-opacity:1;stroke-width:2.977403;stroke-linecap:butt;stroke-linejoin:miter;stroke:rgb(0%,0%,0%);stroke-opacity:1;stroke-miterlimit:4;" d="M 266.283211 566.341764 L 252.276554 576.521009 " transform="matrix(0.0637038,-0.0535346,0.0715391,0.0664038,26.669583,173.237973)"/>
<path style="fill-rule:evenodd;fill:rgb(0%,0%,0%);fill-opacity:1;stroke-width:2.977403;stroke-linecap:butt;stroke-linejoin:miter;stroke:rgb(0%,0%,0%);stroke-opacity:1;stroke-miterlimit:4;" d="M 266.29839 575.883767 L 252.257062 586.093886 " transform="matrix(0.0637038,-0.0535346,0.0715391,0.0664038,26.669583,173.237973)"/>
<path style="fill-rule:evenodd;fill:rgb(0%,0%,0%);fill-opacity:1;stroke-width:2.977403;stroke-linecap:butt;stroke-linejoin:miter;stroke:rgb(0%,0%,0%);stroke-opacity:1;stroke-miterlimit:4;" d="M 266.283703 586.107601 L 252.277046 596.286846 " transform="matrix(0.0637038,-0.0535346,0.0715391,0.0664038,26.669583,173.237973)"/>
<path style="fill-rule:evenodd;fill:rgb(83.137255%,33.333333%,0%);fill-opacity:1;stroke-width:0.132039;stroke-linecap:butt;stroke-linejoin:miter;stroke:rgb(0%,0%,0%);stroke-opacity:1;stroke-miterlimit:4;" d="M -17.19995 434.507122 C -17.200943 436.794343 -19.054031 438.647809 -21.340735 438.648445 C -23.628148 438.64746 -25.482851 436.795184 -25.481857 434.507962 C -25.483381 432.220232 -23.628485 430.365653 -21.341072 430.366638 C -19.054368 430.366001 -17.200765 432.221014 -17.19995 434.507122 Z M -17.19995 434.507122 " transform="matrix(1.701205,1.168968,-0.743887,1.897938,460.273927,-682.166831)"/>
<path style="fill:none;stroke-width:0.684387;stroke-linecap:butt;stroke-linejoin:miter;stroke:rgb(0%,0%,0%);stroke-opacity:1;stroke-miterlimit:4;" d="M -82.191819 665.137318 C -114.712632 644.090657 -109.965115 620.246357 -81.733815 575.848641 C -82.172484 580.370715 -81.314785 596.852381 -76.169128 606.554329 C -69.677467 618.807586 -54.480504 638.498691 -82.191819 665.137318 Z M -82.191819 665.137318 " transform="matrix(0.100298,-0.395102,0.340572,0.179355,-116.279495,-21.863483)"/>
<path style="fill-rule:evenodd;fill:rgb(0%,56.078431%,29.803922%);fill-opacity:1;stroke-width:0.684387;stroke-linecap:butt;stroke-linejoin:miter;stroke:rgb(0%,0%,0%);stroke-opacity:1;stroke-miterlimit:4;" d="M -84.06876 663.224097 C -88.256205 660.293806 -90.339659 658.579039 -93.299221 655.631227 C -96.939216 652.012107 -99.06839 649.129428 -101.012828 645.194482 C -103.300321 640.569157 -104.199602 636.475518 -104.17525 630.779387 C -104.161218 626.084157 -103.546583 622.232851 -101.94082 616.862402 C -99.074667 607.255488 -93.793879 596.455737 -84.707819 581.667915 L -82.381477 577.863056 L -82.265988 580.948796 C -82.045537 587.249544 -80.956408 594.418494 -79.424324 599.644786 C -78.340152 603.339884 -77.443195 605.381135 -74.74345 610.217672 C -71.49264 616.050357 -70.310992 618.500963 -68.918339 622.265789 C -66.647926 628.42161 -66.117705 634.424677 -67.338204 640.404255 C -68.542654 646.310289 -71.984228 652.863685 -77.067847 658.914272 C -78.464262 660.564241 -82.10616 664.389502 -82.294818 664.387714 C -82.351736 664.393006 -83.15653 663.861549 -84.06876 663.224097 Z M -84.06876 663.224097 " transform="matrix(0.100298,-0.395102,0.340572,0.179355,-116.279495,-21.863483)"/>
<path style="fill:none;stroke-width:0.684387;stroke-linecap:butt;stroke-linejoin:miter;stroke:rgb(0%,0%,0%);stroke-opacity:1;stroke-miterlimit:4;" d="M -82.206113 664.866256 C -94.875285 631.447043 -88.193759 604.349273 -82.096219 576.792655 " transform="matrix(0.100298,-0.395102,0.340572,0.179355,-116.279495,-21.863483)"/>
<path style="fill:none;stroke-width:0.684387;stroke-linecap:butt;stroke-linejoin:miter;stroke:rgb(0%,0%,0%);stroke-opacity:1;stroke-miterlimit:4;" d="M -82.185943 665.14581 C -114.711747 644.092264 -109.968081 620.253227 -81.741124 575.840259 C -82.177716 580.364885 -81.306348 596.846349 -76.17264 606.55559 C -69.679272 618.799611 -54.48285 638.503981 -82.185943 665.14581 Z M -82.185943 665.14581 " transform="matrix(0.0473434,0.456569,-0.324361,0.0941287,319.3843,104.957246)"/>
<path style="fill-rule:evenodd;fill:rgb(0%,56.078431%,29.803922%);fill-opacity:1;stroke-width:0.684387;stroke-linecap:butt;stroke-linejoin:miter;stroke:rgb(0%,0%,0%);stroke-opacity:1;stroke-miterlimit:4;" d="M -84.065053 663.221658 C -88.261785 660.296866 -90.338605 658.584715 -93.298338 655.635745 C -96.939725 652.009222 -99.06755 649.133505 -101.011672 645.20074 C -103.299063 640.567553 -104.192136 636.475082 -104.173336 630.781527 C -104.16115 626.074525 -103.541507 622.238978 -101.944881 616.860021 C -99.075717 607.259096 -93.785971 596.457941 -84.713764 581.668691 L -82.381285 577.866375 L -82.265008 580.95429 C -82.039946 587.249456 -80.951024 594.417371 -79.428769 599.649411 C -78.340951 603.336762 -77.445108 605.382342 -74.746437 610.220074 C -71.49174 616.054224 -70.31106 618.502666 -68.920751 622.258255 C -66.640462 628.419855 -66.123656 634.420402 -67.341118 640.408675 C -68.541708 646.31511 -71.989045 652.869088 -77.075312 658.906863 C -78.459796 660.559394 -82.106435 664.386669 -82.293982 664.38338 C -82.354532 664.386585 -83.152988 663.860584 -84.065053 663.221658 Z M -84.065053 663.221658 " transform="matrix(0.0473434,0.456569,-0.324361,0.0941287,319.3843,104.957246)"/>
<path style="fill:none;stroke-width:0.684387;stroke-linecap:butt;stroke-linejoin:miter;stroke:rgb(0%,0%,0%);stroke-opacity:1;stroke-miterlimit:4;" d="M -82.213563 664.864792 C -94.87474 631.452296 -88.201505 604.354279 -82.101398 576.799279 " transform="matrix(0.0473434,0.456569,-0.324361,0.0941287,319.3843,104.957246)"/>
<path style="fill-rule:evenodd;fill:rgb(83.137255%,33.333333%,0%);fill-opacity:1;stroke-width:0.132039;stroke-linecap:butt;stroke-linejoin:miter;stroke:rgb(0%,0%,0%);stroke-opacity:1;stroke-miterlimit:4;" d="M -17.201124 434.507536 C -17.200308 436.793644 -19.055205 438.648224 -21.341909 438.64886 C -23.628613 438.649497 -25.482216 436.794484 -25.483031 434.508376 C -25.482038 432.221155 -23.62895 430.367689 -21.342246 430.367053 C -19.055542 430.366416 -17.20013 432.220315 -17.201124 434.507536 Z M -17.201124 434.507536 " transform="matrix(1.701205,1.168968,-0.743887,1.897938,460.170765,-496.353746)"/>
<path style="fill:none;stroke-width:0.684387;stroke-linecap:butt;stroke-linejoin:miter;stroke:rgb(0%,0%,0%);stroke-opacity:1;stroke-miterlimit:4;" d="M -82.188626 665.14111 C -114.714031 644.084331 -109.961921 620.250148 -81.735214 575.842315 C -82.182604 580.366957 -81.311592 596.856172 -76.165934 606.55812 C -69.678866 618.80126 -54.486031 638.505051 -82.188626 665.14111 Z M -82.188626 665.14111 " transform="matrix(0.100298,-0.395102,0.340572,0.179355,-116.382669,163.949599)"/>
<path style="fill-rule:evenodd;fill:rgb(0%,56.078431%,29.803922%);fill-opacity:1;stroke-width:0.684387;stroke-linecap:butt;stroke-linejoin:miter;stroke:rgb(0%,0%,0%);stroke-opacity:1;stroke-miterlimit:4;" d="M -84.065566 663.227888 C -88.257604 660.28748 -90.336465 658.58283 -93.296028 655.635018 C -96.940615 652.005781 -99.065196 649.133219 -101.009635 645.198273 C -103.297127 640.572949 -104.196408 636.47931 -104.180777 630.785747 C -104.162617 626.077831 -103.543389 622.236642 -101.937626 616.866193 C -99.080195 607.261847 -93.790685 596.459528 -84.717939 581.664158 L -82.378283 577.866847 L -82.262794 580.952587 C -82.042343 587.253335 -80.957807 594.412168 -79.421131 599.648577 C -78.345679 603.346243 -77.440001 605.384926 -74.744849 610.211346 C -71.489446 616.054148 -70.307798 618.504754 -68.919738 622.259463 C -66.644732 628.425402 -66.123232 634.431036 -67.33501 640.408046 C -68.53946 646.31408 -71.989755 652.870045 -77.069246 658.907946 C -78.461068 660.568032 -82.102966 664.393293 -82.291625 664.391505 C -82.353135 664.38668 -83.153336 663.865341 -84.065566 663.227888 Z M -84.065566 663.227888 " transform="matrix(0.100298,-0.395102,0.340572,0.179355,-116.382669,163.949599)"/>
<path style="fill:none;stroke-width:0.684387;stroke-linecap:butt;stroke-linejoin:miter;stroke:rgb(0%,0%,0%);stroke-opacity:1;stroke-miterlimit:4;" d="M -82.216233 664.862498 C -94.872092 631.450834 -88.199286 604.355633 -82.101746 576.799015 " transform="matrix(0.100298,-0.395102,0.340572,0.179355,-116.382669,163.949599)"/>
<path style="fill:none;stroke-width:0.684387;stroke-linecap:butt;stroke-linejoin:miter;stroke:rgb(0%,0%,0%);stroke-opacity:1;stroke-miterlimit:4;" d="M -82.186184 665.140805 C -114.711988 644.087259 -109.968323 620.248221 -81.73547 575.848157 C -82.180368 580.371571 -81.309 596.853034 -76.172882 606.550584 C -69.681923 618.806296 -54.483091 638.498975 -82.186184 665.140805 Z M -82.186184 665.140805 " transform="matrix(0.0473434,0.456569,-0.324361,0.0941287,319.281125,290.770328)"/>
<path style="fill-rule:evenodd;fill:rgb(0%,56.078431%,29.803922%);fill-opacity:1;stroke-width:0.684387;stroke-linecap:butt;stroke-linejoin:miter;stroke:rgb(0%,0%,0%);stroke-opacity:1;stroke-miterlimit:4;" d="M -84.067705 663.228343 C -88.253721 660.293073 -90.338846 658.579709 -93.298579 655.630739 C -96.942377 652.015907 -99.067792 649.1285 -101.011913 645.195734 C -103.301715 640.574239 -104.194787 636.481767 -104.175988 630.788212 C -104.163802 626.081211 -103.541748 622.233972 -101.939227 616.867919 C -99.075959 607.25409 -93.786213 596.452935 -84.714005 581.663686 L -82.373221 577.862581 L -82.26525 580.949284 C -82.042598 587.256141 -80.951265 594.412365 -79.429011 599.644405 C -78.343603 603.343447 -77.44535 605.377336 -74.746679 610.215068 C -71.491982 616.049218 -70.311301 618.49766 -68.923403 622.26494 C -66.643114 628.42654 -66.118003 634.428299 -67.34136 640.403669 C -68.54195 646.310104 -71.989287 652.864082 -77.069658 658.91476 C -78.462448 660.566079 -82.109087 664.393354 -82.288328 664.391278 C -82.357184 664.393271 -83.15564 663.86727 -84.067705 663.228343 Z M -84.067705 663.228343 " transform="matrix(0.0473434,0.456569,-0.324361,0.0941287,319.281125,290.770328)"/>
<path style="fill:none;stroke-width:0.684387;stroke-linecap:butt;stroke-linejoin:miter;stroke:rgb(0%,0%,0%);stroke-opacity:1;stroke-miterlimit:4;" d="M -82.213805 664.859786 C -94.866675 631.448502 -88.201747 604.349273 -82.101639 576.794273 " transform="matrix(0.0473434,0.456569,-0.324361,0.0941287,319.281125,290.770328)"/>
<path style="fill-rule:evenodd;fill:rgb(83.137255%,33.333333%,0%);fill-opacity:1;stroke-width:0.132039;stroke-linecap:butt;stroke-linejoin:miter;stroke:rgb(0%,0%,0%);stroke-opacity:1;stroke-miterlimit:4;" d="M -17.200794 434.506801 C -17.200873 436.793767 -19.05569 438.648512 -21.341638 438.648699 C -23.629508 438.649646 -25.483314 436.794506 -25.483236 434.50754 C -25.483157 432.220574 -23.62834 430.365828 -21.342071 430.367453 C -19.054201 430.366505 -17.200716 432.219835 -17.200794 434.506801 Z M -17.200794 434.506801 " transform="matrix(-0.798178,1.900168,-2.015525,-0.33642,883.858249,403.951139)"/>
<path style="fill:none;stroke-width:0.684387;stroke-linecap:butt;stroke-linejoin:miter;stroke:rgb(0%,0%,0%);stroke-opacity:1;stroke-miterlimit:4;" d="M -82.184102 665.139677 C -114.707293 644.081541 -109.968018 620.249701 -81.73539 575.849133 C -82.177979 580.366095 -81.307732 596.853719 -76.165514 606.555246 C -69.683534 618.798725 -54.479762 638.507119 -82.184102 665.139677 Z M -82.184102 665.139677 " transform="matrix(0.408382,0.0167881,-0.106136,0.369183,117.427094,-23.190362)"/>
<path style="fill-rule:evenodd;fill:rgb(0%,56.078431%,29.803922%);fill-opacity:1;stroke-width:0.684387;stroke-linecap:butt;stroke-linejoin:miter;stroke:rgb(0%,0%,0%);stroke-opacity:1;stroke-miterlimit:4;" d="M -84.068509 663.225598 C -88.254584 660.294621 -90.345314 658.580379 -93.301022 655.635775 C -96.939853 652.013323 -99.064839 649.136752 -101.007835 645.193825 C -103.300365 640.568461 -104.19958 636.482843 -104.180257 630.778918 C -104.15799 626.080034 -103.541465 622.232332 -101.944127 616.858719 C -99.073127 607.258355 -93.787821 596.458383 -84.709628 581.666267 L -82.377774 577.867533 L -82.264839 580.951989 C -82.041452 587.258563 -80.956392 594.414741 -79.424635 599.646063 C -78.339655 603.342325 -77.447744 605.375601 -74.745646 610.215118 C -71.496322 616.056088 -70.306631 618.499055 -68.916306 622.266078 C -66.645654 628.426652 -66.120225 634.423229 -67.339786 640.40393 C -68.540557 646.309712 -71.991729 652.868028 -77.069835 658.907803 C -78.465065 660.568949 -82.102913 664.384749 -82.291982 664.393346 C -82.35142 664.385468 -83.157203 663.861328 -84.068509 663.225598 Z M -84.068509 663.225598 " transform="matrix(0.408382,0.0167881,-0.106136,0.369183,117.427094,-23.190362)"/>
<path style="fill:none;stroke-width:0.684387;stroke-linecap:butt;stroke-linejoin:miter;stroke:rgb(0%,0%,0%);stroke-opacity:1;stroke-miterlimit:4;" d="M -82.207497 664.86564 C -94.872277 631.445471 -88.197372 604.351374 -82.101249 576.796879 " transform="matrix(0.408382,0.0167881,-0.106136,0.369183,117.427094,-23.190362)"/>
<path style="fill:none;stroke-width:0.684387;stroke-linecap:butt;stroke-linejoin:miter;stroke:rgb(0%,0%,0%);stroke-opacity:1;stroke-miterlimit:4;" d="M -82.190856 665.141383 C -114.714792 644.088306 -109.964957 620.250084 -81.736976 575.843581 C -82.174866 580.368642 -81.307826 596.849681 -76.16499 606.551333 C -69.683253 618.802003 -54.482199 638.508362 -82.190856 665.141383 Z M -82.190856 665.141383 " transform="matrix(-0.438409,0.139914,-0.158963,-0.29723,82.37174,428.012004)"/>
<path style="fill-rule:evenodd;fill:rgb(0%,56.078431%,29.803922%);fill-opacity:1;stroke-width:0.684387;stroke-linecap:butt;stroke-linejoin:miter;stroke:rgb(0%,0%,0%);stroke-opacity:1;stroke-miterlimit:4;" d="M -84.068864 663.219118 C -88.254593 660.289397 -90.344458 658.582818 -93.300238 655.627528 C -96.941729 652.007757 -99.069163 649.12698 -101.013977 645.20194 C -103.297767 640.565361 -104.194237 636.476697 -104.178175 630.780547 C -104.159419 626.084472 -103.546984 622.232972 -101.939357 616.865468 C -99.077343 607.252112 -93.789992 596.454264 -84.714008 581.670412 L -82.381341 577.866427 L -82.271306 580.95407 C -82.042204 587.251886 -80.950919 594.415533 -79.424474 599.641845 C -78.343411 603.344284 -77.443659 605.384313 -74.748875 610.214357 C -71.494566 616.056891 -70.310895 618.493412 -68.923803 622.261055 C -66.640308 628.421988 -66.117049 634.42458 -67.341455 640.40617 C -68.541438 646.320404 -71.990138 652.858303 -77.07342 658.915886 C -78.463133 660.561592 -82.106458 664.39258 -82.290712 664.3847 C -82.3562 664.393299 -83.152174 663.860905 -84.068864 663.219118 Z M -84.068864 663.219118 " transform="matrix(-0.438409,0.139914,-0.158963,-0.29723,82.37174,428.012004)"/>
<path style="fill:none;stroke-width:0.684387;stroke-linecap:butt;stroke-linejoin:miter;stroke:rgb(0%,0%,0%);stroke-opacity:1;stroke-miterlimit:4;" d="M -82.216 664.866703 C -94.871316 631.455452 -88.195354 604.344695 -82.098189 576.790634 " transform="matrix(-0.438409,0.139914,-0.158963,-0.29723,82.37174,428.012004)"/>
<path style="fill-rule:evenodd;fill:rgb(83.137255%,33.333333%,0%);fill-opacity:1;stroke-width:0.132039;stroke-linecap:butt;stroke-linejoin:miter;stroke:rgb(0%,0%,0%);stroke-opacity:1;stroke-miterlimit:4;" d="M -17.201708 434.508215 C -17.199865 436.79442 -19.054682 438.649166 -21.340951 438.647541 C -23.628821 438.648488 -25.482306 436.795159 -25.482228 434.508193 C -25.482149 432.221227 -23.629254 430.367242 -21.341384 430.366295 C -19.055435 430.366108 -17.201629 432.221249 -17.201708 434.508215 Z M -17.201708 434.508215 " transform="matrix(0.798178,1.900168,2.015525,-0.33642,-684.153338,402.703349)"/>
<path style="fill:none;stroke-width:0.684387;stroke-linecap:butt;stroke-linejoin:miter;stroke:rgb(0%,0%,0%);stroke-opacity:1;stroke-miterlimit:4;" d="M -82.187863 665.144436 C -114.711054 644.0863 -109.965043 620.243573 -81.741868 575.843435 C -82.18174 580.370854 -81.31421 596.848021 -76.171993 606.549548 C -69.677841 618.803054 -54.48624 638.501421 -82.187863 665.144436 Z M -82.187863 665.144436 " transform="matrix(-0.408382,0.0167881,0.106136,0.369183,82.277897,-24.43815)"/>
<path style="fill-rule:evenodd;fill:rgb(0%,56.078431%,29.803922%);fill-opacity:1;stroke-width:0.684387;stroke-linecap:butt;stroke-linejoin:miter;stroke:rgb(0%,0%,0%);stroke-opacity:1;stroke-miterlimit:4;" d="M -84.072269 663.230357 C -88.261062 660.288923 -90.342339 658.574251 -93.298047 655.629647 C -96.936877 652.007195 -99.071317 649.131054 -101.011596 645.198584 C -103.294672 640.57279 -104.196605 636.476715 -104.174564 630.783247 C -104.16175 626.084793 -103.545225 622.237091 -101.938434 616.863048 C -99.079605 607.252657 -93.794299 596.452684 -84.713388 581.671027 L -82.374799 577.861405 L -82.271317 580.946291 C -82.04793 587.252865 -80.950699 594.41907 -79.431113 599.640364 C -78.346133 603.336627 -77.442051 605.379931 -74.749406 610.219877 C -71.493346 616.04996 -70.310392 618.503814 -68.922784 622.26038 C -66.642679 628.420524 -66.123986 634.427988 -67.334093 640.40826 C -68.544317 646.314471 -71.988754 652.8619 -77.073596 658.912562 C -78.462089 660.562821 -82.106673 664.389508 -82.289007 664.387218 C -82.355181 664.390228 -83.15151 663.865658 -84.072269 663.230357 Z M -84.072269 663.230357 " transform="matrix(-0.408382,0.0167881,0.106136,0.369183,82.277897,-24.43815)"/>
<path style="fill:none;stroke-width:0.684387;stroke-linecap:butt;stroke-linejoin:miter;stroke:rgb(0%,0%,0%);stroke-opacity:1;stroke-miterlimit:4;" d="M -82.213975 664.859942 C -94.866584 631.4498 -88.20385 604.345676 -82.095556 576.801209 " transform="matrix(-0.408382,0.0167881,0.106136,0.369183,82.277897,-24.43815)"/>
<path style="fill:none;stroke-width:0.684387;stroke-linecap:butt;stroke-linejoin:miter;stroke:rgb(0%,0%,0%);stroke-opacity:1;stroke-miterlimit:4;" d="M -82.185113 665.138382 C -114.709049 644.085306 -109.966825 620.243501 -81.742914 575.848223 C -82.180804 580.373285 -81.313764 596.854323 -76.170928 606.555975 C -69.67751 618.799003 -54.484067 638.501779 -82.185113 665.138382 Z M -82.185113 665.138382 " transform="matrix(0.438409,0.139914,0.158963,-0.29723,117.33325,426.764215)"/>
<path style="fill-rule:evenodd;fill:rgb(0%,56.078431%,29.803922%);fill-opacity:1;stroke-width:0.684387;stroke-linecap:butt;stroke-linejoin:miter;stroke:rgb(0%,0%,0%);stroke-opacity:1;stroke-miterlimit:4;" d="M -84.067192 663.227344 C -88.260531 660.29404 -90.338715 658.579818 -93.298566 655.635753 C -96.940057 652.015983 -99.06749 649.135206 -101.008234 645.198939 C -103.296095 640.573587 -104.200175 636.481339 -104.176503 630.788772 C -104.161287 626.077888 -103.545312 622.241198 -101.941225 616.858884 C -99.075671 607.260338 -93.788319 596.46249 -84.708265 581.667411 L -82.375598 577.863427 L -82.265563 580.951069 C -82.048143 587.256529 -80.956857 594.420176 -79.430412 599.646488 C -78.345279 603.337701 -77.445527 605.37773 -74.743132 610.211357 C -71.488823 616.053891 -70.309222 618.501638 -68.91806 622.258054 C -66.646246 628.426631 -66.122987 634.429223 -67.335712 640.40317 C -68.543306 646.313821 -71.988466 652.866529 -77.075288 658.909303 C -78.461461 660.569818 -82.108326 664.385997 -82.289039 664.392925 C -82.358068 664.386716 -83.158113 663.865548 -84.067192 663.227344 Z M -84.067192 663.227344 " transform="matrix(0.438409,0.139914,0.158963,-0.29723,117.33325,426.764215)"/>
<path style="fill:none;stroke-width:0.684387;stroke-linecap:butt;stroke-linejoin:miter;stroke:rgb(0%,0%,0%);stroke-opacity:1;stroke-miterlimit:4;" d="M -82.210257 664.863703 C -94.873184 631.448869 -88.201293 604.349338 -82.096516 576.798859 " transform="matrix(0.438409,0.139914,0.158963,-0.29723,117.33325,426.764215)"/>
<path style="fill-rule:evenodd;fill:rgb(0%,0%,0%);fill-opacity:1;stroke-width:3.139965;stroke-linecap:butt;stroke-linejoin:miter;stroke:rgb(0%,0%,0%);stroke-opacity:1;stroke-miterlimit:4;" d="M 278.365163 16.813439 C 278.365163 16.813439 273.592823 40.256858 266.0606 66.771098 C 258.457836 93.28067 248.095189 122.861065 248.095189 122.861065 C 254.647359 107.385531 263.676227 105.236994 273.986356 97.233439 L 279.14804 97.127301 L 279.322854 97.109021 L 284.450805 97.030499 C 294.01189 107.990734 304.215611 107.501906 311.424942 123.321021 C 311.424942 123.321021 300.910957 95.164807 292.654445 68.531007 C 284.397934 41.897208 278.365163 16.813439 278.365163 16.813439 Z M 278.365163 16.813439 " transform="matrix(0.0598949,0.0512342,-0.068287,0.0625832,74.698148,145.127339)"/>
<path style="fill-rule:evenodd;fill:rgb(0%,0%,0%);fill-opacity:1;stroke-width:3.139965;stroke-linecap:butt;stroke-linejoin:miter;stroke:rgb(0%,0%,0%);stroke-opacity:1;stroke-miterlimit:4;" d="M 278.694468 25.968809 L 279.322854 97.109021 " transform="matrix(0.0598949,0.0512342,-0.068287,0.0625832,74.698148,145.127339)"/>
<use xlink:href="#surface8" mask="url(#mask1)"/>
<path style="fill-rule:evenodd;fill:rgb(0%,0%,0%);fill-opacity:1;stroke-width:3.139965;stroke-linecap:butt;stroke-linejoin:miter;stroke:rgb(0%,0%,0%);stroke-opacity:1;stroke-miterlimit:4;" d="M 274.391581 100.334629 L 272.737293 115.358236 L 286.609131 115.112154 L 284.51255 100.288049 Z M 274.391581 100.334629 " transform="matrix(0.0598949,0.0512342,-0.068287,0.0625832,74.698148,145.127339)"/>
<path style="fill-rule:evenodd;fill:rgb(0%,0%,0%);fill-opacity:1;stroke-width:2.977415;stroke-linecap:butt;stroke-linejoin:miter;stroke:rgb(0%,0%,0%);stroke-opacity:1;stroke-miterlimit:4;" d="M -614.192658 273.937784 L -126.752692 273.934202 L -126.751464 281.562868 L -614.160415 281.531783 Z M -614.192658 273.937784 " transform="matrix(0.0715317,-0.06641,0.0639946,0.0532638,74.856841,143.49549)"/>
<path style="fill-rule:evenodd;fill:rgb(0%,0%,0%);fill-opacity:1;stroke-width:2.977403;stroke-linecap:butt;stroke-linejoin:miter;stroke:rgb(0%,0%,0%);stroke-opacity:1;stroke-miterlimit:4;" d="M 272.401111 594.665371 L 246.64224 612.843792 L 248.534913 540.432938 L 272.389356 520.613275 Z M 272.401111 594.665371 " transform="matrix(0.0637038,0.0535346,-0.0715391,0.0664038,74.856841,143.49549)"/>
<path style="fill-rule:evenodd;fill:rgb(0%,0%,0%);fill-opacity:1;stroke-width:2.977403;stroke-linecap:butt;stroke-linejoin:miter;stroke:rgb(0%,0%,0%);stroke-opacity:1;stroke-miterlimit:4;" d="M 283.347509 594.311309 L 309.131909 612.466597 L 307.226371 540.058917 L 283.367936 520.233267 Z M 283.347509 594.311309 " transform="matrix(0.0637038,0.0535346,-0.0715391,0.0664038,74.856841,143.49549)"/>
<path style="fill-rule:evenodd;fill:rgb(0%,0%,0%);fill-opacity:1;stroke-width:2.977403;stroke-linecap:butt;stroke-linejoin:miter;stroke:rgb(0%,0%,0%);stroke-opacity:1;stroke-miterlimit:4;" d="M 277.786904 519.85015 L 277.750361 610.294733 " transform="matrix(0.0637038,0.0535346,-0.0715391,0.0664038,74.856841,143.49549)"/>
<path style="fill-rule:evenodd;fill:rgb(0%,0%,0%);fill-opacity:1;stroke-width:2.977403;stroke-linecap:butt;stroke-linejoin:miter;stroke:rgb(0%,0%,0%);stroke-opacity:1;stroke-miterlimit:4;" d="M 266.932864 534.483228 L 252.886238 544.689902 " transform="matrix(0.0637038,0.0535346,-0.0715391,0.0664038,74.856841,143.49549)"/>
<path style="fill-rule:evenodd;fill:rgb(0%,0%,0%);fill-opacity:1;stroke-width:2.977403;stroke-linecap:butt;stroke-linejoin:miter;stroke:rgb(0%,0%,0%);stroke-opacity:1;stroke-miterlimit:4;" d="M 266.670181 544.460071 L 252.655738 554.6408 " transform="matrix(0.0637038,0.0535346,-0.0715391,0.0664038,74.856841,143.49549)"/>
<path style="fill-rule:evenodd;fill:rgb(0%,0%,0%);fill-opacity:1;stroke-width:2.977403;stroke-linecap:butt;stroke-linejoin:miter;stroke:rgb(0%,0%,0%);stroke-opacity:1;stroke-miterlimit:4;" d="M 266.288897 555.532567 L 252.274453 565.713296 " transform="matrix(0.0637038,0.0535346,-0.0715391,0.0664038,74.856841,143.49549)"/>
<path style="fill-rule:evenodd;fill:rgb(0%,0%,0%);fill-opacity:1;stroke-width:2.977403;stroke-linecap:butt;stroke-linejoin:miter;stroke:rgb(0%,0%,0%);stroke-opacity:1;stroke-miterlimit:4;" d="M 266.296289 566.350539 L 252.281845 576.531268 " transform="matrix(0.0637038,0.0535346,-0.0715391,0.0664038,74.856841,143.49549)"/>
<path style="fill-rule:evenodd;fill:rgb(0%,0%,0%);fill-opacity:1;stroke-width:2.977403;stroke-linecap:butt;stroke-linejoin:miter;stroke:rgb(0%,0%,0%);stroke-opacity:1;stroke-miterlimit:4;" d="M 266.28111 575.892542 L 252.301337 586.104145 " transform="matrix(0.0637038,0.0535346,-0.0715391,0.0664038,74.856841,143.49549)"/>
<path style="fill-rule:evenodd;fill:rgb(0%,0%,0%);fill-opacity:1;stroke-width:2.977403;stroke-linecap:butt;stroke-linejoin:miter;stroke:rgb(0%,0%,0%);stroke-opacity:1;stroke-miterlimit:4;" d="M 266.295797 586.116375 L 252.281353 596.297105 " transform="matrix(0.0637038,0.0535346,-0.0715391,0.0664038,74.856841,143.49549)"/>
<path style="fill-rule:evenodd;fill:rgb(0%,0%,0%);fill-opacity:1;stroke-width:2.977403;stroke-linecap:butt;stroke-linejoin:miter;stroke:rgb(0%,0%,0%);stroke-opacity:1;stroke-miterlimit:4;" d="M 266.925087 534.505101 L 252.91843 544.684346 " transform="matrix(-0.0637038,-0.0535346,-0.0715391,0.0664038,110.281239,173.237973)"/>
<path style="fill-rule:evenodd;fill:rgb(0%,0%,0%);fill-opacity:1;stroke-width:2.977403;stroke-linecap:butt;stroke-linejoin:miter;stroke:rgb(0%,0%,0%);stroke-opacity:1;stroke-miterlimit:4;" d="M 266.690101 544.433678 L 252.648773 554.643798 " transform="matrix(-0.0637038,-0.0535346,-0.0715391,0.0664038,110.281239,173.237973)"/>
<path style="fill-rule:evenodd;fill:rgb(0%,0%,0%);fill-opacity:1;stroke-width:2.977403;stroke-linecap:butt;stroke-linejoin:miter;stroke:rgb(0%,0%,0%);stroke-opacity:1;stroke-miterlimit:4;" d="M 266.303814 555.534443 L 252.297156 565.713688 " transform="matrix(-0.0637038,-0.0535346,-0.0715391,0.0664038,110.281239,173.237973)"/>
<path style="fill-rule:evenodd;fill:rgb(0%,0%,0%);fill-opacity:1;stroke-width:2.977403;stroke-linecap:butt;stroke-linejoin:miter;stroke:rgb(0%,0%,0%);stroke-opacity:1;stroke-miterlimit:4;" d="M 266.296421 566.352414 L 252.289764 576.531659 " transform="matrix(-0.0637038,-0.0535346,-0.0715391,0.0664038,110.281239,173.237973)"/>
<path style="fill-rule:evenodd;fill:rgb(0%,0%,0%);fill-opacity:1;stroke-width:2.977403;stroke-linecap:butt;stroke-linejoin:miter;stroke:rgb(0%,0%,0%);stroke-opacity:1;stroke-miterlimit:4;" d="M 266.3116 575.894417 L 252.270272 586.104536 " transform="matrix(-0.0637038,-0.0535346,-0.0715391,0.0664038,110.281239,173.237973)"/>
<path style="fill-rule:evenodd;fill:rgb(0%,0%,0%);fill-opacity:1;stroke-width:2.977403;stroke-linecap:butt;stroke-linejoin:miter;stroke:rgb(0%,0%,0%);stroke-opacity:1;stroke-miterlimit:4;" d="M 266.296914 586.118251 L 252.290256 596.297496 " transform="matrix(-0.0637038,-0.0535346,-0.0715391,0.0664038,110.281239,173.237973)"/>
<path style="fill-rule:evenodd;fill:rgb(0%,0%,0%);fill-opacity:1;stroke-width:3.139965;stroke-linecap:butt;stroke-linejoin:miter;stroke:rgb(0%,0%,0%);stroke-opacity:1;stroke-miterlimit:4;" d="M 278.383363 16.822204 C 278.383363 16.822204 273.597112 40.242503 266.047436 66.784571 C 258.497579 93.282651 248.136244 122.856972 248.136244 122.856972 C 254.630515 107.408364 263.668297 105.236155 274.022502 97.25671 L 279.143769 97.157587 L 279.335078 97.11976 L 284.456345 97.020638 C 294.026633 107.972163 304.220211 107.508451 311.417092 123.309586 C 311.417092 123.309586 300.914713 95.175138 292.668113 68.520687 C 284.421694 41.910223 278.383363 16.822204 278.383363 16.822204 Z M 278.383363 16.822204 " transform="matrix(0.0816079,-0.00285748,-0.000334832,0.088815,45.713146,151.44985)"/>
<path style="fill-rule:evenodd;fill:rgb(0%,0%,0%);fill-opacity:1;stroke-width:3.139965;stroke-linecap:butt;stroke-linejoin:miter;stroke:rgb(0%,0%,0%);stroke-opacity:1;stroke-miterlimit:4;" d="M 278.660264 25.979344 L 279.335078 97.11976 " transform="matrix(0.0816079,-0.00285748,-0.000334832,0.088815,45.713146,151.44985)"/>
<use xlink:href="#surface11" mask="url(#mask2)"/>
<path style="fill-rule:evenodd;fill:rgb(0%,0%,0%);fill-opacity:1;stroke-width:3.139965;stroke-linecap:butt;stroke-linejoin:miter;stroke:rgb(0%,0%,0%);stroke-opacity:1;stroke-miterlimit:4;" d="M 274.370243 100.34663 L 272.756612 115.380499 L 286.636728 115.12336 L 284.517573 100.277267 Z M 274.370243 100.34663 " transform="matrix(0.0816079,-0.00285748,-0.000334832,0.088815,45.713146,151.44985)"/>
<path style="fill-rule:evenodd;fill:rgb(0%,0%,0%);fill-opacity:1;stroke-width:2.977415;stroke-linecap:butt;stroke-linejoin:miter;stroke:rgb(0%,0%,0%);stroke-opacity:1;stroke-miterlimit:4;" d="M -614.19382 273.929214 L -126.740133 273.965642 L -126.738111 281.545594 L -614.193784 281.554547 Z M -614.19382 273.929214 " transform="matrix(-0.000302934,-0.0936384,0.0860618,-0.00409775,44.575033,150.192399)"/>
<path style="fill-rule:evenodd;fill:rgb(0%,0%,0%);fill-opacity:1;stroke-width:2.977403;stroke-linecap:butt;stroke-linejoin:miter;stroke:rgb(0%,0%,0%);stroke-opacity:1;stroke-miterlimit:4;" d="M 272.427251 594.702565 L 246.630635 612.826422 L 248.556327 540.441926 L 272.407064 520.61391 Z M 272.427251 594.702565 " transform="matrix(0.0860637,-0.00371646,0.000292893,0.0936388,44.575033,150.192399)"/>
<path style="fill-rule:evenodd;fill:rgb(0%,0%,0%);fill-opacity:1;stroke-width:2.977403;stroke-linecap:butt;stroke-linejoin:miter;stroke:rgb(0%,0%,0%);stroke-opacity:1;stroke-miterlimit:4;" d="M 283.367096 594.302437 L 309.13098 612.470318 L 307.198796 540.057855 L 283.346766 520.255493 Z M 283.367096 594.302437 " transform="matrix(0.0860637,-0.00371646,0.000292893,0.0936388,44.575033,150.192399)"/>
<path style="fill-rule:evenodd;fill:rgb(0%,0%,0%);fill-opacity:1;stroke-width:2.977403;stroke-linecap:butt;stroke-linejoin:miter;stroke:rgb(0%,0%,0%);stroke-opacity:1;stroke-miterlimit:4;" d="M 277.765519 519.825396 L 277.775302 610.308079 " transform="matrix(0.0860637,-0.00371646,0.000292893,0.0936388,44.575033,150.192399)"/>
<path style="fill-rule:evenodd;fill:rgb(0%,0%,0%);fill-opacity:1;stroke-width:2.977403;stroke-linecap:butt;stroke-linejoin:miter;stroke:rgb(0%,0%,0%);stroke-opacity:1;stroke-miterlimit:4;" d="M 266.913273 534.495919 L 252.899065 544.702468 " transform="matrix(0.0860637,-0.00371646,0.000292893,0.0936388,44.575033,150.192399)"/>
<path style="fill-rule:evenodd;fill:rgb(0%,0%,0%);fill-opacity:1;stroke-width:2.977403;stroke-linecap:butt;stroke-linejoin:miter;stroke:rgb(0%,0%,0%);stroke-opacity:1;stroke-miterlimit:4;" d="M 266.697819 544.457524 L 252.683754 554.622362 " transform="matrix(0.0860637,-0.00371646,0.000292893,0.0936388,44.575033,150.192399)"/>
<path style="fill-rule:evenodd;fill:rgb(0%,0%,0%);fill-opacity:1;stroke-width:2.977403;stroke-linecap:butt;stroke-linejoin:miter;stroke:rgb(0%,0%,0%);stroke-opacity:1;stroke-miterlimit:4;" d="M 266.297007 555.538107 L 252.282942 565.702946 " transform="matrix(0.0860637,-0.00371646,0.000292893,0.0936388,44.575033,150.192399)"/>
<path style="fill-rule:evenodd;fill:rgb(0%,0%,0%);fill-opacity:1;stroke-width:2.977403;stroke-linecap:butt;stroke-linejoin:miter;stroke:rgb(0%,0%,0%);stroke-opacity:1;stroke-miterlimit:4;" d="M 266.305623 566.342928 L 252.291416 576.549477 " transform="matrix(0.0860637,-0.00371646,0.000292893,0.0936388,44.575033,150.192399)"/>
<path style="fill-rule:evenodd;fill:rgb(0%,0%,0%);fill-opacity:1;stroke-width:2.977403;stroke-linecap:butt;stroke-linejoin:miter;stroke:rgb(0%,0%,0%);stroke-opacity:1;stroke-miterlimit:4;" d="M 266.273117 575.894633 L 252.25891 586.101181 " transform="matrix(0.0860637,-0.00371646,0.000292893,0.0936388,44.575033,150.192399)"/>
<path style="fill-rule:evenodd;fill:rgb(0%,0%,0%);fill-opacity:1;stroke-width:2.977403;stroke-linecap:butt;stroke-linejoin:miter;stroke:rgb(0%,0%,0%);stroke-opacity:1;stroke-miterlimit:4;" d="M 266.283721 586.115506 L 252.269656 596.280344 " transform="matrix(0.0860637,-0.00371646,0.000292893,0.0936388,44.575033,150.192399)"/>
<path style="fill-rule:evenodd;fill:rgb(0%,0%,0%);fill-opacity:1;stroke-width:2.977403;stroke-linecap:butt;stroke-linejoin:miter;stroke:rgb(0%,0%,0%);stroke-opacity:1;stroke-miterlimit:4;" d="M 266.91288 534.498709 L 252.922705 544.690396 " transform="matrix(-0.0860637,0.00371646,0.000292893,0.0936388,92.412614,148.106633)"/>
<path style="fill-rule:evenodd;fill:rgb(0%,0%,0%);fill-opacity:1;stroke-width:2.977403;stroke-linecap:butt;stroke-linejoin:miter;stroke:rgb(0%,0%,0%);stroke-opacity:1;stroke-miterlimit:4;" d="M 266.674374 544.436615 L 252.684198 554.628302 " transform="matrix(-0.0860637,0.00371646,0.000292893,0.0936388,92.412614,148.106633)"/>
<path style="fill-rule:evenodd;fill:rgb(0%,0%,0%);fill-opacity:1;stroke-width:2.977403;stroke-linecap:butt;stroke-linejoin:miter;stroke:rgb(0%,0%,0%);stroke-opacity:1;stroke-miterlimit:4;" d="M 266.303554 555.506108 L 252.267997 565.699596 " transform="matrix(-0.0860637,0.00371646,0.000292893,0.0936388,92.412614,148.106633)"/>
<path style="fill-rule:evenodd;fill:rgb(0%,0%,0%);fill-opacity:1;stroke-width:2.977403;stroke-linecap:butt;stroke-linejoin:miter;stroke:rgb(0%,0%,0%);stroke-opacity:1;stroke-miterlimit:4;" d="M 266.29508 566.352639 L 252.259522 576.546127 " transform="matrix(-0.0860637,0.00371646,0.000292893,0.0936388,92.412614,148.106633)"/>
<path style="fill-rule:evenodd;fill:rgb(0%,0%,0%);fill-opacity:1;stroke-width:2.977403;stroke-linecap:butt;stroke-linejoin:miter;stroke:rgb(0%,0%,0%);stroke-opacity:1;stroke-miterlimit:4;" d="M 266.282204 575.906145 L 252.292029 586.097832 " transform="matrix(-0.0860637,0.00371646,0.000292893,0.0936388,92.412614,148.106633)"/>
<path style="fill-rule:evenodd;fill:rgb(0%,0%,0%);fill-opacity:1;stroke-width:2.977403;stroke-linecap:butt;stroke-linejoin:miter;stroke:rgb(0%,0%,0%);stroke-opacity:1;stroke-miterlimit:4;" d="M 266.271458 586.085308 L 252.281283 596.276995 " transform="matrix(-0.0860637,0.00371646,0.000292893,0.0936388,92.412614,148.106633)"/>
<path style=" stroke:none;fill-rule:nonzero;fill:rgb(0%,0%,0%);fill-opacity:1;" d="M 41.621094 155.546875 L 42.972656 155.429688 C 43.035156 155.96875 43.1875 156.414062 43.417969 156.757812 C 43.652344 157.105469 44.015625 157.386719 44.507812 157.597656 C 45 157.8125 45.554688 157.917969 46.171875 157.917969 C 46.71875 157.917969 47.199219 157.835938 47.617188 157.675781 C 48.035156 157.515625 48.347656 157.292969 48.550781 157.007812 C 48.757812 156.726562 48.859375 156.417969 48.859375 156.085938 C 48.859375 155.746094 48.761719 155.449219 48.5625 155.195312 C 48.367188 154.945312 48.042969 154.730469 47.589844 154.558594 C 47.296875 154.445312 46.65625 154.269531 45.660156 154.035156 C 44.667969 153.796875 43.96875 153.570312 43.570312 153.359375 C 43.054688 153.089844 42.667969 152.753906 42.414062 152.355469 C 42.160156 151.953125 42.035156 151.503906 42.035156 151.007812 C 42.035156 150.464844 42.191406 149.953125 42.5 149.480469 C 42.808594 149.007812 43.261719 148.648438 43.859375 148.402344 C 44.453125 148.15625 45.117188 148.035156 45.84375 148.035156 C 46.648438 148.035156 47.355469 148.164062 47.96875 148.421875 C 48.582031 148.679688 49.054688 149.058594 49.382812 149.558594 C 49.710938 150.058594 49.890625 150.625 49.914062 151.261719 L 48.539062 151.363281 C 48.46875 150.679688 48.21875 150.164062 47.792969 149.816406 C 47.367188 149.46875 46.738281 149.292969 45.90625 149.292969 C 45.039062 149.292969 44.40625 149.453125 44.011719 149.769531 C 43.613281 150.085938 43.414062 150.46875 43.414062 150.914062 C 43.414062 151.300781 43.554688 151.621094 43.835938 151.871094 C 44.113281 152.121094 44.832031 152.378906 45.996094 152.640625 C 47.160156 152.902344 47.960938 153.132812 48.394531 153.328125 C 49.023438 153.621094 49.488281 153.988281 49.789062 154.429688 C 50.089844 154.875 50.238281 155.386719 50.238281 155.96875 C 50.238281 156.542969 50.074219 157.082031 49.746094 157.589844 C 49.414062 158.097656 48.941406 158.496094 48.324219 158.777344 C 47.707031 159.058594 47.011719 159.199219 46.238281 159.199219 C 45.257812 159.199219 44.4375 159.058594 43.773438 158.773438 C 43.113281 158.488281 42.59375 158.058594 42.214844 157.488281 C 41.839844 156.914062 41.640625 156.269531 41.621094 155.546875 Z M 41.621094 155.546875 "/>
<path style=" stroke:none;fill-rule:nonzero;fill:rgb(0%,0%,0%);fill-opacity:1;" d="M 85.597656 155.546875 L 86.949219 155.429688 C 87.015625 155.96875 87.164062 156.414062 87.398438 156.757812 C 87.628906 157.105469 87.992188 157.386719 88.484375 157.597656 C 88.976562 157.8125 89.53125 157.917969 90.148438 157.917969 C 90.695312 157.917969 91.175781 157.835938 91.59375 157.675781 C 92.011719 157.515625 92.324219 157.292969 92.527344 157.007812 C 92.734375 156.726562 92.835938 156.417969 92.835938 156.085938 C 92.835938 155.746094 92.738281 155.449219 92.539062 155.195312 C 92.34375 154.945312 92.019531 154.730469 91.566406 154.558594 C 91.273438 154.445312 90.632812 154.269531 89.636719 154.035156 C 88.644531 153.796875 87.945312 153.570312 87.546875 153.359375 C 87.03125 153.089844 86.644531 152.753906 86.390625 152.355469 C 86.140625 151.953125 86.011719 151.503906 86.011719 151.007812 C 86.011719 150.464844 86.167969 149.953125 86.476562 149.480469 C 86.789062 149.007812 87.242188 148.648438 87.835938 148.402344 C 88.433594 148.15625 89.09375 148.035156 89.824219 148.035156 C 90.625 148.035156 91.332031 148.164062 91.945312 148.421875 C 92.558594 148.679688 93.03125 149.058594 93.359375 149.558594 C 93.691406 150.058594 93.867188 150.625 93.890625 151.261719 L 92.519531 151.363281 C 92.445312 150.679688 92.195312 150.164062 91.769531 149.816406 C 91.34375 149.46875 90.714844 149.292969 89.882812 149.292969 C 89.015625 149.292969 88.382812 149.453125 87.988281 149.769531 C 87.589844 150.085938 87.394531 150.46875 87.394531 150.914062 C 87.394531 151.300781 87.535156 151.621094 87.8125 151.871094 C 88.089844 152.121094 88.808594 152.378906 89.972656 152.640625 C 91.136719 152.902344 91.9375 153.132812 92.371094 153.328125 C 93 153.621094 93.464844 153.988281 93.765625 154.429688 C 94.066406 154.875 94.214844 155.386719 94.214844 155.96875 C 94.214844 156.542969 94.050781 157.082031 93.722656 157.589844 C 93.390625 158.097656 92.917969 158.496094 92.300781 158.777344 C 91.683594 159.058594 90.988281 159.199219 90.214844 159.199219 C 89.234375 159.199219 88.414062 159.058594 87.75 158.773438 C 87.089844 158.488281 86.570312 158.058594 86.191406 157.488281 C 85.816406 156.914062 85.617188 156.269531 85.597656 155.546875 Z M 85.597656 155.546875 "/>
</g>
</svg>
